<svg width="121" height="25" viewBox="0 0 121 25" fill="none" xmlns="http://www.w3.org/2000/svg">
<path d="M39.7648 19.6429C37.3644 22.9215 34.159 24.7306 30.1135 24.9677C26.0768 25.2048 22.6636 23.8172 19.8622 20.8782C19.7656 21.0217 19.6719 21.168 19.5724 21.3086C18.539 22.778 17.131 23.706 15.4127 24.1802C14.6223 24.3968 13.8173 24.4847 12.9977 24.4847C8.97266 24.4817 4.94764 24.4847 0.922615 24.4847C0.855288 24.4847 0.78796 24.4847 0.708923 24.4847C0.708923 16.4961 0.708923 8.52216 0.708923 0.533591C0.761615 0.530664 0.814306 0.524809 0.866997 0.524809C4.62856 0.524809 8.39013 0.504318 12.1517 0.533591C14.0339 0.548227 15.7493 1.11905 17.21 2.34851C18.0707 3.07155 18.6971 3.96437 19.0806 5.02698C19.0981 5.07674 19.1216 5.12358 19.1508 5.19676C19.1918 5.147 19.224 5.11187 19.2504 5.07674C20.8604 2.93982 22.9417 1.46154 25.4826 0.627264C26.5539 0.27599 27.6517 0.0827887 28.7787 0.0271702C30.4092 -0.0489392 32.0075 0.117916 33.5736 0.589209C34.6538 0.914138 35.6666 1.38836 36.6004 2.02358C36.6443 2.05285 36.6853 2.08505 36.7438 2.12604C35.8686 3.50479 34.9962 4.87476 34.1151 6.25937C34.0215 6.19497 33.9336 6.13349 33.8487 6.07495C32.71 5.29629 31.4396 4.90403 30.0725 4.78987C28.6323 4.66985 27.2682 4.95087 25.9831 5.59194C24.5634 6.30035 23.4452 7.34246 22.6431 8.71243C21.8791 10.018 21.5219 11.429 21.6244 12.9394C21.7503 14.7661 22.4557 16.3527 23.7028 17.6904C24.8649 18.9374 26.2817 19.7512 27.959 20.0615C30.4911 20.5299 32.7276 19.9064 34.642 18.1617C35.7573 17.1459 36.454 15.8843 36.8375 14.4499C37.1419 13.3112 37.3732 12.1549 37.6337 11.0045C37.906 9.80431 38.2368 8.62461 38.7461 7.50054C39.3169 6.2418 40.0751 5.11187 41.003 4.08732C42.1857 2.78467 43.5732 1.76305 45.1891 1.05758C46.2956 0.574573 47.4519 0.270135 48.6462 0.117916C49.4131 0.0183884 50.1801 -0.0196664 50.95 0.00960652C53.3591 0.0974251 55.6014 0.723865 57.6154 2.08505C57.6622 2.11725 57.7091 2.15238 57.7647 2.19336C56.8982 3.57212 56.0376 4.94501 55.174 6.31791C54.8989 6.1452 54.6413 5.97249 54.372 5.81735C53.2391 5.16749 52.0155 4.83085 50.707 4.79572C48.6169 4.73718 46.7961 5.42216 45.2681 6.83604C43.9567 8.04794 43.1604 9.55256 42.8882 11.3236C42.6394 12.957 42.8765 14.5319 43.6347 15.9955C44.8758 18.393 46.8254 19.8537 49.5244 20.1903C51.5998 20.4509 53.4586 19.8859 55.0218 18.4662C56.0288 17.5528 56.6904 16.4171 57.0943 15.1261C57.1002 15.1027 57.1031 15.0793 57.1119 15.0324C54.6354 15.0324 52.1648 15.0324 49.662 15.0324C49.8083 14.8012 49.9313 14.6021 50.0571 14.4031C50.8768 13.1151 51.6993 11.83 52.5161 10.542C52.5746 10.4483 52.6361 10.4132 52.7502 10.4132C55.8737 10.4161 58.9941 10.4161 62.1176 10.4132C62.2376 10.4132 62.2903 10.4308 62.3108 10.5713C62.7059 13.3083 62.2991 15.9136 61.0462 18.3783C60.4871 19.4819 59.767 20.4743 58.9005 21.3583C57.1382 23.1557 55.0218 24.2944 52.5541 24.7803C51.6145 24.9647 50.6602 25.0291 49.7029 24.9882C47.9466 24.915 46.2575 24.5344 44.6592 23.788C43.4678 23.2289 42.3876 22.5029 41.4333 21.5925C40.8274 21.0158 40.2859 20.3835 39.8146 19.6927C39.7999 19.6839 39.7853 19.6693 39.7648 19.6429ZM5.89608 20.0498C5.98097 20.0498 6.0483 20.0498 6.11562 20.0498C8.3872 20.0498 10.6617 20.0498 12.9333 20.0498C13.3021 20.0498 13.6592 19.9883 14.0076 19.8625C15.3161 19.3912 16.0684 18.0358 15.761 16.6951C15.48 15.4774 14.3384 14.5904 13.0357 14.5875C10.7144 14.5846 8.39305 14.5875 6.07171 14.5875C6.0161 14.5875 5.95755 14.5934 5.89608 14.5963C5.89608 16.4171 5.89608 18.2203 5.89608 20.0498ZM5.89608 4.95965C5.89608 6.71895 5.89608 8.45483 5.89608 10.2112C5.96048 10.2112 6.0161 10.2112 6.07464 10.2112C8.02129 10.2112 9.96793 10.2346 11.9146 10.2053C13.9754 10.1731 15.079 8.0333 14.1891 6.34426C13.6914 5.39874 12.8513 4.97721 11.8092 4.96843C9.89768 4.95087 7.98323 4.96258 6.07171 4.96258C6.02195 4.95965 5.96926 4.95965 5.89608 4.95965ZM109.364 15.1583C109.633 15.1583 109.888 15.1583 110.163 15.1583C110.163 13.8088 110.163 12.4652 110.163 11.1245C110.225 11.1567 110.254 11.1977 110.28 11.2387C111.068 12.5121 111.852 13.7854 112.64 15.0559C112.666 15.0998 112.719 15.1612 112.76 15.1612C113.064 15.17 113.371 15.1671 113.685 15.1671C113.685 13.3961 113.685 11.6368 113.685 9.87164C113.421 9.87164 113.164 9.87164 112.886 9.87164C112.886 11.1948 112.886 12.5091 112.886 13.8205C112.681 13.5483 112.508 13.2731 112.335 12.9951C111.715 11.991 111.097 10.9869 110.473 9.9858C110.441 9.93311 110.383 9.86578 110.333 9.86578C110.011 9.85407 109.692 9.85993 109.361 9.85993C109.364 11.6456 109.364 13.4019 109.364 15.1583ZM85.4773 9.87457C85.2109 9.87457 84.9533 9.87457 84.6723 9.87457C84.6723 11.1948 84.6723 12.5033 84.6723 13.8118C84.4645 13.5366 84.2888 13.2556 84.1161 12.9746C83.4985 11.9764 82.8808 10.9752 82.2632 9.97702C82.2368 9.93604 82.1958 9.87164 82.1578 9.87164C81.8241 9.86286 81.4874 9.86578 81.1479 9.86578C81.1479 11.6397 81.1479 13.399 81.1479 15.1554C81.4172 15.1554 81.6777 15.1554 81.9529 15.1554C81.9529 13.8001 81.9529 12.4594 81.9529 11.1157C82.0173 11.1509 82.0465 11.1948 82.0758 11.2416C82.351 11.6866 82.6232 12.1286 82.8984 12.5735C83.4077 13.399 83.9171 14.2245 84.4294 15.0471C84.4615 15.0968 84.523 15.1612 84.5728 15.1642C84.8684 15.1759 85.167 15.17 85.4773 15.17C85.4773 13.3932 85.4773 11.6339 85.4773 9.87457ZM69.2514 5.82905C69.2514 4.05219 69.2514 2.29875 69.2514 0.539446C69.2748 0.533591 69.2953 0.527736 69.3128 0.527736C70.0681 0.530664 70.8233 0.516027 71.5786 0.542373C72.2109 0.565791 72.7378 0.981466 72.9075 1.52009C73.0832 2.08505 72.9134 2.60318 72.4333 2.95153C72.4128 2.96617 72.3953 2.9808 72.366 3.00129C72.3923 3.02471 72.4128 3.04228 72.4363 3.05691C72.9398 3.34964 73.2091 3.79166 73.1769 4.37126C73.1388 5.06211 72.7524 5.51876 72.0996 5.73245C71.9123 5.79393 71.7074 5.82027 71.5112 5.8232C70.8204 5.83491 70.1266 5.82613 69.4358 5.82613C69.3772 5.82905 69.3187 5.82905 69.2514 5.82905ZM70.0856 4.30101C70.0856 4.52641 70.0886 4.74889 70.0856 4.97429C70.0856 5.05332 70.1061 5.09138 70.191 5.09138C70.6477 5.08552 71.1073 5.10016 71.5639 5.07674C71.9884 5.05332 72.3104 4.70498 72.3133 4.30101C72.3162 3.88826 71.9825 3.53699 71.5405 3.51942C71.0926 3.50186 70.6448 3.51064 70.1969 3.50479C70.1003 3.50479 70.0827 3.5487 70.0856 3.63066C70.0886 3.85314 70.0856 4.07561 70.0856 4.30101ZM70.0856 2.02651C70.0856 2.23142 70.0915 2.43633 70.0827 2.64124C70.0798 2.74369 70.1149 2.77589 70.2174 2.77297C70.6008 2.76711 70.9872 2.77589 71.3707 2.77004C71.7835 2.76418 72.0996 2.44804 72.1113 2.03822C72.123 1.64596 71.8186 1.30054 71.4117 1.28298C71.0077 1.26541 70.6038 1.27127 70.1998 1.26541C70.112 1.26249 70.0798 1.29469 70.0798 1.38543C70.0886 1.5962 70.0856 1.80989 70.0856 2.02651ZM100.266 4.49714C100.245 4.46787 100.222 4.44152 100.202 4.40932C99.4288 3.1623 98.656 1.91527 97.889 0.665319C97.8246 0.559937 97.7573 0.518955 97.6343 0.524809C97.3972 0.533591 97.1572 0.527736 96.9172 0.527736C96.8645 0.527736 96.8147 0.533591 96.7649 0.536518C96.7649 2.30753 96.7649 4.06097 96.7649 5.8232C97.0313 5.8232 97.286 5.8232 97.567 5.8232C97.567 4.47372 97.567 3.1301 97.567 1.78354C97.6168 1.80403 97.6373 1.83038 97.6548 1.85965C98.4218 3.09789 99.1917 4.33614 99.9469 5.58023C100.061 5.77051 100.178 5.8554 100.404 5.83491C100.629 5.81149 100.857 5.82905 101.086 5.82905C101.086 4.05219 101.086 2.29875 101.086 0.536518C100.822 0.536518 100.567 0.536518 100.301 0.536518C100.301 1.20687 100.301 1.86258 100.301 2.52122C100.301 3.17693 100.301 3.83264 100.301 4.48543C100.286 4.49128 100.275 4.49421 100.266 4.49714ZM92.7224 0.410645C94.2797 0.410645 95.5238 1.64596 95.5208 3.18864C95.5179 4.73425 94.265 5.94907 92.6726 5.94615C91.165 5.94322 89.9239 4.69327 89.9268 3.17693C89.9297 1.64011 91.1709 0.410645 92.7224 0.410645ZM94.6544 3.1945C94.6544 2.08213 93.8025 1.19809 92.7311 1.19809C91.651 1.19809 90.7933 2.07627 90.7933 3.17986C90.7933 4.27759 91.651 5.15871 92.7194 5.15871C93.7967 5.15871 94.6544 4.2893 94.6544 3.1945ZM79.9067 12.5238C79.9008 14.0664 78.6509 15.29 77.0906 15.2842C75.5421 15.2783 74.298 14.0313 74.3185 12.4828C74.339 10.8786 75.6592 9.71064 77.199 9.74284C78.6802 9.77504 79.9125 11.0191 79.9067 12.5238ZM79.0402 12.5179C79.0402 11.4231 78.1884 10.5508 77.1346 10.5332C76.11 10.5156 75.1879 11.3616 75.1821 12.4828C75.1762 13.6156 76.028 14.4997 77.117 14.4997C78.1854 14.4968 79.0402 13.6156 79.0402 12.5179ZM80.5156 21.8384C80.4863 20.366 81.7421 19.0399 83.3814 19.0809C84.8158 19.116 86.1213 20.3045 86.0979 21.9086C86.0774 23.3957 84.8245 24.6193 83.2877 24.6164C81.666 24.6135 80.4775 23.2815 80.5156 21.8384ZM85.2373 21.853C85.2314 20.808 84.4557 19.8713 83.3023 19.8654C82.2017 19.8625 81.3674 20.7348 81.3733 21.853C81.3762 23.0093 82.2514 23.8231 83.2994 23.8319C84.3679 23.8436 85.2344 22.9478 85.2373 21.853ZM76.9589 5.94615C75.4016 5.94615 74.1634 4.72254 74.1634 3.18279C74.1634 1.63132 75.3957 0.407718 76.9618 0.410645C78.5104 0.410645 79.7574 1.64889 79.7545 3.17986C79.7545 4.71669 78.5104 5.94615 76.9589 5.94615ZM75.024 3.17986C75.024 4.2571 75.8846 5.15871 76.9209 5.16163C78.0244 5.16456 78.8909 4.30101 78.8909 3.19742C78.8939 2.09091 78.0332 1.20101 76.9648 1.19809C75.8904 1.19809 75.0269 2.0792 75.024 3.17986ZM76.3793 22.5848C76.3793 23.2318 76.3793 23.8553 76.3793 24.4934C76.1012 24.4934 75.8319 24.4934 75.548 24.4934C75.548 22.7341 75.548 20.9748 75.548 19.195C75.5919 19.1921 75.6416 19.1892 75.6885 19.1892C76.3471 19.1892 77.0057 19.1833 77.6644 19.1892C78.2674 19.195 78.7943 19.3795 79.1719 19.88C79.7018 20.5826 79.6432 22.0638 78.3991 22.4531C78.3757 22.459 78.3552 22.4736 78.3113 22.4912C78.727 23.1586 79.1427 23.8172 79.5701 24.5022C79.2393 24.5022 78.9348 24.5051 78.6304 24.4964C78.5894 24.4964 78.5426 24.429 78.5133 24.3851C78.165 23.8202 77.8195 23.2552 77.4712 22.6932C77.4448 22.6492 77.3922 22.5907 77.3482 22.5878C77.0292 22.5819 76.713 22.5848 76.3793 22.5848ZM76.3852 21.8179C76.8301 21.8179 77.2575 21.8179 77.6878 21.8179C78.2294 21.8179 78.6128 21.4461 78.6158 20.9192C78.6187 20.3601 78.2411 19.9708 77.6907 19.9649C77.3014 19.962 76.9091 19.9649 76.5198 19.9649C76.4788 19.9649 76.4349 19.9708 76.3852 19.9766C76.3852 20.5914 76.3852 21.1915 76.3852 21.8179ZM119.223 10.141C118.635 9.78382 117.988 9.68429 117.323 9.77211C115.792 9.97409 114.768 11.306 114.938 12.8487C115.122 14.5172 116.7 15.612 118.336 15.2052C119.372 14.9476 120.122 14.0811 120.23 13.0185C120.256 12.7638 120.28 12.5091 120.213 12.2515C119.525 12.2515 118.845 12.2515 118.169 12.2515C118.14 12.2515 118.093 12.2603 118.079 12.2837C117.92 12.5208 117.771 12.7609 117.598 13.0273C118.225 13.0273 118.81 13.0273 119.41 13.0273C119.396 13.0975 119.387 13.1502 119.375 13.2029C119.033 14.5026 117.669 14.769 116.788 14.2889C116.038 13.8791 115.658 13.0243 115.816 12.1315C116 11.0806 116.975 10.3898 118.026 10.5596C118.354 10.6122 118.649 10.7323 118.925 10.9313C119.074 10.7001 119.214 10.4776 119.367 10.2405C119.311 10.1995 119.267 10.1673 119.223 10.141ZM73.2969 19.4849C72.8051 19.1804 72.2635 19.0809 71.6898 19.0838C70.1881 19.0926 68.7596 20.3865 68.9967 22.2189C69.1782 23.6357 70.2554 24.5754 71.6752 24.6105C72.4714 24.6281 73.1593 24.3588 73.6833 23.7411C74.1809 23.1557 74.3448 22.4648 74.2951 21.7125C74.2892 21.6042 74.2424 21.5749 74.1399 21.5779C73.5603 21.5837 72.9778 21.5896 72.3982 21.5749C72.2079 21.5691 72.0938 21.6218 72.0059 21.7916C71.9123 21.976 71.7893 22.1428 71.6605 22.3448C72.2811 22.3448 72.8636 22.3448 73.4637 22.3448C73.452 22.4092 73.4432 22.456 73.4315 22.5029C73.1242 23.7792 71.8186 24.0953 70.9024 23.6562C69.8544 23.1557 69.4885 21.7008 70.1647 20.7143C70.5716 20.123 71.1395 19.842 71.8625 19.8742C72.2694 19.8917 72.6353 20.0176 72.9719 20.2606C73.1212 20.0293 73.2647 19.8069 73.414 19.5697C73.3759 19.5405 73.3379 19.5112 73.2969 19.4849ZM87.263 19.3268C87.263 20.3982 87.263 21.4725 87.263 22.5439C87.263 22.6493 87.2747 22.7576 87.2952 22.8629C87.6025 24.5344 89.4116 24.9852 90.5796 24.3324C91.3348 23.9138 91.648 23.2289 91.651 22.3887C91.6568 21.3759 91.651 20.3601 91.651 19.3473C91.651 19.3004 91.6451 19.2536 91.6451 19.2009C91.367 19.2009 91.0977 19.2009 90.8196 19.2009C90.8196 19.2712 90.8196 19.3297 90.8196 19.3883C90.8196 20.3923 90.8196 21.3964 90.8196 22.4004C90.8196 22.778 90.7172 23.1235 90.4596 23.4103C90.0907 23.8172 89.4789 23.949 88.9403 23.7411C88.4427 23.5479 88.1089 23.0532 88.1089 22.4941C88.106 21.452 88.1089 20.4069 88.1089 19.3648C88.1089 19.3092 88.1031 19.2536 88.1002 19.195C87.8133 19.195 87.5469 19.195 87.2688 19.195C87.2688 19.2419 87.263 19.2858 87.263 19.3268ZM93.2405 19.1892C93.4073 19.1892 93.5625 19.1863 93.7176 19.1892C94.347 19.198 94.9764 19.1775 95.6028 19.2214C96.3668 19.2741 96.964 19.8273 97.1074 20.5416C97.2655 21.3408 96.9406 22.055 96.2468 22.4326C95.9336 22.6024 95.5911 22.6463 95.2428 22.6522C94.9149 22.658 94.59 22.6522 94.2621 22.6551C94.2094 22.6551 94.1567 22.658 94.0923 22.661C94.0923 23.2757 94.0923 23.8787 94.0923 24.4934C93.8025 24.4934 93.5274 24.4934 93.2405 24.4934C93.2405 22.7341 93.2405 20.9748 93.2405 19.1892ZM94.107 19.9737C94.0982 20.0001 94.0923 20.0088 94.0894 20.0176C94.0894 20.6119 94.0894 21.2061 94.0835 21.8003C94.0835 21.9028 94.145 21.9028 94.2182 21.9028C94.5841 21.9028 94.95 21.9086 95.3159 21.8999C95.8487 21.8882 96.2351 21.5281 96.2702 21.0217C96.3083 20.4684 95.9892 20.0293 95.4506 19.9796C95.0086 19.9415 94.5578 19.9737 94.107 19.9737ZM91.8442 9.97117C91.8442 11.0601 91.8383 12.1461 91.8471 13.2351C91.85 13.6508 91.9788 14.0342 92.2159 14.3738C92.6287 14.9622 93.2141 15.2344 93.9196 15.2842C95.1901 15.3749 96.2263 14.4148 96.2292 13.1473C96.2292 12.1139 96.2292 11.0777 96.2292 10.0443C96.2292 9.98873 96.2292 9.93311 96.2292 9.87749C95.9394 9.87749 95.6731 9.87749 95.392 9.87749C95.392 9.94482 95.392 10.0034 95.392 10.059C95.392 11.0894 95.392 12.1169 95.392 13.1473C95.392 14.0225 94.6427 14.6431 93.785 14.4821C93.1292 14.3592 92.6902 13.8176 92.6872 13.1239C92.6843 12.0993 92.6872 11.0748 92.6872 10.0502C92.6872 9.99459 92.6872 9.93604 92.6872 9.87164C92.4033 9.87164 92.1369 9.87164 91.853 9.87164C91.8471 9.91555 91.8442 9.94189 91.8442 9.97117ZM87.0141 14.7924C87.6816 15.2139 88.4075 15.3632 89.1833 15.2461C89.9473 15.129 90.5152 14.649 90.5913 13.8527C90.644 13.2995 90.4918 12.8282 89.9912 12.5384C89.7248 12.3833 89.4262 12.2808 89.1364 12.1696C88.8378 12.0554 88.5246 11.9705 88.229 11.8476C87.9743 11.7422 87.8221 11.5373 87.8338 11.2533C87.8484 10.9342 88.0036 10.6971 88.3139 10.5859C88.7178 10.4395 89.113 10.5069 89.4936 10.6679C89.6487 10.7323 89.7951 10.8201 89.9561 10.902C90.0966 10.6796 90.2312 10.463 90.3717 10.2434C90.3366 10.2171 90.3103 10.1936 90.281 10.1761C89.7014 9.80724 89.0662 9.67844 88.3929 9.77211C87.5528 9.8892 87.061 10.4073 86.9878 11.2094C86.9351 11.8007 87.1898 12.2749 87.7225 12.5384C87.9216 12.6379 88.1353 12.714 88.3431 12.7901C88.6944 12.9219 89.0515 13.0331 89.397 13.1765C89.5726 13.2497 89.6926 13.3961 89.7365 13.5893C89.8243 13.9757 89.5667 14.3504 89.1306 14.4675C88.7852 14.5582 88.4397 14.5319 88.1089 14.4119C87.8221 14.3065 87.5498 14.166 87.2513 14.0342C87.1254 14.2333 86.9878 14.4499 86.8444 14.6782C86.9117 14.7222 86.9615 14.7602 87.0141 14.7924ZM80.6619 5.38703C81.3703 5.87296 82.1549 6.0486 82.9979 5.89638C83.7561 5.76173 84.2274 5.29921 84.3298 4.60838C84.4059 4.09903 84.3152 3.63359 83.882 3.29402C83.5717 3.05106 83.2028 2.93689 82.8369 2.81395C82.5413 2.71442 82.2397 2.6266 81.9587 2.4978C81.3938 2.23435 81.543 1.55814 81.8943 1.33567C82.1578 1.16881 82.4417 1.14832 82.7403 1.18638C83.0887 1.23029 83.3989 1.3825 83.7063 1.57571C83.8497 1.34738 83.9873 1.12783 84.1249 0.905357C84.0839 0.876084 84.0605 0.85852 84.0371 0.843884C83.4575 0.475045 82.8252 0.343317 82.149 0.434063C81.2854 0.551155 80.6853 1.13954 80.7468 2.13189C80.7673 2.47438 80.8932 2.76418 81.1566 2.98959C81.4552 3.24719 81.8241 3.36428 82.19 3.48722C82.5178 3.59846 82.8457 3.70677 83.1618 3.84435C83.3726 3.93803 83.5014 4.11659 83.5043 4.36541C83.5102 4.73718 83.2906 5.02112 82.9013 5.1265C82.4095 5.25823 81.9441 5.14992 81.4991 4.93623C81.3381 4.86012 81.183 4.76938 81.0191 4.68156C80.8785 4.90403 80.7468 5.1148 80.6063 5.33727C80.6327 5.36362 80.6444 5.37825 80.6619 5.38703ZM69.7636 10.5683C68.7303 11.6163 68.7215 13.3785 69.7109 14.4119C70.8175 15.5681 72.6499 15.4832 73.5486 14.6841C73.4081 14.4646 73.2647 14.2392 73.1212 14.0167C72.1201 14.7836 70.9902 14.5699 70.3813 13.923C69.711 13.2087 69.6436 12.0905 70.2174 11.3119C70.4896 10.9401 70.8467 10.6884 71.2975 10.583C71.9737 10.422 72.5768 10.6064 73.1242 11.0221C73.2735 10.7879 73.414 10.5683 73.5515 10.3488C72.6324 9.54378 70.8438 9.47353 69.7636 10.5683ZM85.1846 1.29761C85.249 1.29761 85.3075 1.29761 85.3632 1.29761C85.7964 1.29761 86.2326 1.30347 86.6658 1.29469C86.8034 1.29176 86.8473 1.32981 86.8473 1.47325C86.8414 2.86371 86.8444 4.25417 86.8444 5.64464C86.8444 5.70318 86.8444 5.7588 86.8444 5.82027C87.14 5.82027 87.4181 5.82027 87.7079 5.82027C87.7079 4.31272 87.7079 2.81688 87.7079 1.29761C88.267 1.29761 88.8144 1.29761 89.3648 1.29761C89.3648 1.03123 89.3648 0.788265 89.3648 0.539446C87.9684 0.539446 86.5809 0.539446 85.1846 0.539446C85.1846 0.79412 85.1846 1.03708 85.1846 1.29761ZM102.593 10.6327C102.731 10.6298 102.763 10.6766 102.763 10.8084C102.76 12.1988 102.76 13.5893 102.76 14.9798C102.76 15.0412 102.76 15.1027 102.76 15.1583C103.059 15.1583 103.334 15.1583 103.615 15.1583C103.615 15.0881 103.615 15.0295 103.615 14.971C103.615 13.5864 103.618 12.1988 103.612 10.8142C103.612 10.6766 103.644 10.6269 103.788 10.6298C104.115 10.6415 104.44 10.6327 104.768 10.6327C104.932 10.6327 105.096 10.6327 105.272 10.6327C105.272 10.3693 105.272 10.1234 105.272 9.87457C103.875 9.87457 102.488 9.87457 101.097 9.87457C101.097 10.1292 101.097 10.3693 101.097 10.6327C101.61 10.6357 102.101 10.6415 102.593 10.6327ZM98.615 9.87164C98.3281 9.87164 98.0588 9.87164 97.7778 9.87164C97.7778 11.6368 97.7778 13.3932 97.7778 15.1554C98.9311 15.1554 100.079 15.1554 101.229 15.1554C101.229 14.9007 101.229 14.6578 101.229 14.3943C100.363 14.3943 99.502 14.3943 98.6179 14.3943C98.615 12.8721 98.615 11.3763 98.615 9.87164ZM106.609 15.1583C106.89 15.1583 107.16 15.1583 107.429 15.1583C107.429 13.3902 107.429 11.6339 107.429 9.87164C107.151 9.87164 106.885 9.87164 106.609 9.87164C106.609 11.6456 106.609 13.4019 106.609 15.1583Z" fill="#484848"/>
</svg>
