<svg id="Layer_1" data-name="Layer 1" xmlns="http://www.w3.org/2000/svg" width="168" height="30" viewBox="0 0 168 30"><defs><style>.cls-1{fill:#fe595c;}</style></defs><title>Cad Crowd</title><path class="cls-1" d="M59,21.23a6.85,6.85,0,0,1-4.91,1.9,6.57,6.57,0,0,1-6.76-6.76,6.58,6.58,0,0,1,6.79-6.9,7.26,7.26,0,0,1,5.11,2.13l-2.35,2.13a3.52,3.52,0,0,0-2.62-1.13,3.44,3.44,0,0,0-3.37,3.67A3.51,3.51,0,0,0,54.36,20a3.44,3.44,0,0,0,2.48-1.08Z" transform="translate(-0.15)"/><path class="cls-1" d="M70.43,9.91h3.51V22.69H70.43V20.92A5.24,5.24,0,0,1,66,23.13c-3.59,0-6.16-2.79-6.16-6.68s2.71-7,6.43-7a5,5,0,0,1,4.17,2.07Zm-6.85,6.49c0,2.24,1.46,3.92,3.37,3.92a3.81,3.81,0,0,0,3.53-4A3.54,3.54,0,0,0,67,12.42C65,12.42,63.58,14,63.58,16.39Z" transform="translate(-0.15)"/><path class="cls-1" d="M87.19,4.27H90.7V22.69H87.19V21a4.7,4.7,0,0,1-4.28,2.13c-3.78,0-6.32-2.71-6.32-6.71a6.9,6.9,0,0,1,2-5.19A6.39,6.39,0,0,1,83,9.46a5.37,5.37,0,0,1,4.22,1.85ZM80.32,16.45a3.58,3.58,0,0,0,3.45,3.87,3.62,3.62,0,0,0,3.42-3.89c0-2.32-1.44-4-3.4-4S80.32,14.1,80.32,16.45Z" transform="translate(-0.15)"/><path class="cls-1" d="M107.76,21.23a6.85,6.85,0,0,1-4.91,1.9,6.57,6.57,0,0,1-6.76-6.76,6.58,6.58,0,0,1,6.79-6.9A7.26,7.26,0,0,1,108,11.59l-2.35,2.13A3.52,3.52,0,0,0,103,12.58a3.44,3.44,0,0,0-3.37,3.67A3.51,3.51,0,0,0,103.15,20a3.44,3.44,0,0,0,2.48-1.08Z" transform="translate(-0.15)"/><path class="cls-1" d="M113.33,9.91v1.88a3.2,3.2,0,0,1,1.13-1.71,3.66,3.66,0,0,1,2.07-.61,2.73,2.73,0,0,1,.41,0v3.59c-.28,0-.55-.06-.75-.06a2.84,2.84,0,0,0-2.35,1.16,3.56,3.56,0,0,0-.52,2.35v6.16h-3.51V9.91Z" transform="translate(-0.15)"/><path class="cls-1" d="M132.11,16.42a6.78,6.78,0,0,1-7,6.71,6.63,6.63,0,0,1-6.93-6.82,6.59,6.59,0,0,1,7-6.85A6.71,6.71,0,0,1,132.11,16.42Zm-10.38-.11a3.43,3.43,0,1,0,6.85.06c0-2.32-1.3-3.75-3.4-3.75A3.37,3.37,0,0,0,121.73,16.31Z" transform="translate(-0.15)"/><path class="cls-1" d="M153,9.91l-4.17,12.78h-3.64l-2.24-7.84-2.29,7.84h-3.73L132.8,9.91h3.56l2.57,7.79,2.24-7.79h3.37l2.29,7.79,2.6-7.79Z" transform="translate(-0.15)"/><path class="cls-1" d="M164.49,4.27H168V22.69h-3.51V21a4.7,4.7,0,0,1-4.28,2.13c-3.78,0-6.32-2.71-6.32-6.71a6.9,6.9,0,0,1,2-5.19,6.39,6.39,0,0,1,4.33-1.77,5.37,5.37,0,0,1,4.22,1.85Zm-6.87,12.18a3.58,3.58,0,0,0,3.45,3.87,3.62,3.62,0,0,0,3.42-3.89c0-2.32-1.44-4-3.4-4S157.62,14.1,157.62,16.45Z" transform="translate(-0.15)"/><polygon class="cls-1" points="0 0 0 25.2 5.8 26.36 5.8 9.05 17.55 11.4 17.55 17.28 11.68 16.11 11.68 21.98 17.55 23.16 17.55 28.71 24.02 30 29.57 25.45 29.57 0 0 0"/></svg>