<svg width="184" height="135" viewBox="0 0 184 135" fill="none" xmlns="http://www.w3.org/2000/svg">
<g clip-path="url(#clip0_636_2103)">
<path d="M2.64703 123.406C2.64703 128.806 6.22056 132.618 11.6206 132.618H169.968C175.368 132.618 180.529 128.806 180.529 123.406V21.4412H2.64703V123.406Z" fill="#E6FAFF" stroke="#4A374E" stroke-width="4" stroke-miterlimit="10"/>
<g clip-path="url(#clip1_636_2103)">
<path d="M37.2705 55.0227L36.324 60.568C36.2871 60.7916 36.3129 61.0211 36.3982 61.2308C36.4836 61.4404 36.6253 61.6219 36.8073 61.7549C36.9893 61.8878 37.2044 61.9669 37.4286 61.9833C37.6527 61.9997 37.8769 61.9527 38.0761 61.8477L43.0101 59.2273L47.9441 61.8477C48.1432 61.9527 48.3675 61.9997 48.5916 61.9833C48.8157 61.9669 49.0309 61.8878 49.2129 61.7549C49.3949 61.6219 49.5366 61.4404 49.622 61.2308C49.7073 61.0211 49.733 60.7916 49.6962 60.568L48.7497 55.0227L52.7372 51.1023C53.4521 50.4016 53.0594 49.1727 52.0927 49.0203L46.5747 48.2078L44.1077 43.1703C44.0077 42.967 43.8533 42.7958 43.6621 42.6762C43.4708 42.5566 43.2502 42.4932 43.0252 42.4932C42.8002 42.4932 42.5796 42.5566 42.3883 42.6762C42.1971 42.7958 42.0427 42.967 41.9427 43.1703L39.4757 48.2078L33.9577 49.0203C33.7335 49.0518 33.5226 49.1461 33.3489 49.2926C33.1753 49.4391 33.046 49.6318 32.9757 49.8488C32.9054 50.0658 32.8969 50.2984 32.9512 50.52C33.0056 50.7416 33.1205 50.9434 33.283 51.1023L37.2705 55.0227ZM52.6667 79.875H33.3334C29.7788 79.875 26.8889 81.9773 26.8889 85.5625V86.7812C26.8889 87.1045 27.0162 87.4145 27.2428 87.643C27.4694 87.8716 27.7768 88 28.0972 88H57.9028C58.2233 88 58.5306 87.8716 58.7572 87.643C58.9838 87.4145 59.1111 87.1045 59.1111 86.7812V85.5625C59.1111 81.9773 56.2212 79.875 52.6667 79.875Z" fill="#FFDF8C"/>
<path d="M69.5954 42.4999H59.1111V38.4374C59.1119 38.1181 59.0503 37.8018 58.9299 37.5065C58.8095 37.2112 58.6326 36.9427 58.4093 36.7163C58.186 36.49 57.9207 36.3102 57.6286 36.1873C57.3364 36.0644 57.0231 36.0007 56.7065 35.9999H29.3056C28.989 35.9991 28.6754 36.0612 28.3826 36.1826C28.0898 36.3041 27.8236 36.4825 27.5992 36.7077C27.3748 36.9329 27.1966 37.2005 27.0747 37.4952C26.9528 37.7899 26.8897 38.1059 26.8889 38.4252V42.4999H16.4167C16.1001 42.4991 15.7865 42.5612 15.4937 42.6826C15.2009 42.8041 14.9347 42.9825 14.7103 43.2077C14.4859 43.4329 14.3077 43.7005 14.1858 43.9952C14.0639 44.2899 14.0008 44.6059 14 44.9252V50.6249C14 57.3788 21.8441 64.0007 31.3094 65.0874C34.4712 70.3788 38.1667 72.5624 38.1667 72.5624V79.8749H47.8333V72.5624C47.8333 72.5624 51.5288 70.3788 54.6906 65.0874C64.1861 63.9905 72 57.3585 72 50.6249V44.9374C72.0008 44.6181 71.9392 44.3018 71.8188 44.0065C71.6984 43.7112 71.5215 43.4427 71.2982 43.2163C71.0749 42.99 70.8096 42.8102 70.5175 42.6873C70.2253 42.5644 69.912 42.5007 69.5954 42.4999ZM20.4444 50.6249V48.9999H26.909C26.9846 51.9601 27.4174 54.9 28.1979 57.7546C23.4149 56.0889 20.4444 52.6866 20.4444 50.6249ZM52.7372 51.1022L48.7497 55.0225L49.6962 60.5679C49.733 60.7914 49.7073 61.021 49.6219 61.2306C49.5366 61.4403 49.3949 61.6218 49.2129 61.7547C49.0309 61.8877 48.8157 61.9668 48.5916 61.9832C48.3674 61.9996 48.1432 61.9526 47.9441 61.8475L43.0101 59.2272L38.076 61.8475C37.8769 61.9526 37.6527 61.9996 37.4286 61.9832C37.2044 61.9668 36.9893 61.8877 36.8072 61.7547C36.6252 61.6218 36.4836 61.4403 36.3982 61.2306C36.3128 61.021 36.2871 60.7914 36.324 60.5679L37.2705 55.0225L33.283 51.1022C33.1205 50.9433 33.0055 50.7415 32.9512 50.5199C32.8969 50.2983 32.9053 50.0657 32.9756 49.8487C33.046 49.6317 33.1753 49.439 33.3489 49.2925C33.5225 49.146 33.7334 49.0517 33.9576 49.0202L39.4757 48.2077L41.9427 43.1702C42.0427 42.9669 42.197 42.7957 42.3883 42.6761C42.5795 42.5564 42.8001 42.493 43.0252 42.493C43.2502 42.493 43.4708 42.5564 43.6621 42.6761C43.8533 42.7957 44.0076 42.9669 44.1076 43.1702L46.5747 48.2077L52.0927 49.0202C53.0594 49.1725 53.4521 50.4014 52.7372 51.1022ZM65.5556 50.6249C65.5556 52.6764 62.5951 56.0889 57.8021 57.7546C58.5826 54.9 59.0154 51.9601 59.091 48.9999H65.5556V50.6249Z" fill="#FFBF46"/>
</g>
<path d="M169.968 5.55884H11.6206C6.22056 5.55884 2.64703 10.8794 2.64703 16.2794V21.4412H180.529V16.2794C180.529 10.8794 175.368 5.55884 169.968 5.55884Z" fill="#4A374E" stroke="#4A374E" stroke-width="4" stroke-miterlimit="10"/>
<path d="M115.559 63.0323H83.9529V85.5853H115.559V63.0323Z" fill="#E6FAFF"/>
<path d="M114.606 64.0647V84.5529H85.0647V64.0647H114.606ZM116.671 62H83V86.6176H116.671V62Z" fill="#FF5A5F"/>
<path d="M96.8042 75.7131L96.1947 79.1268C96.1709 79.2644 96.1875 79.4057 96.2425 79.5348C96.2974 79.6638 96.3887 79.7756 96.5059 79.8574C96.6231 79.9392 96.7616 79.9879 96.906 79.998C97.0503 80.0081 97.1947 79.9792 97.3229 79.9145L100.5 78.3015L103.677 79.9145C103.806 79.9792 103.95 80.0081 104.094 79.998C104.239 79.9879 104.377 79.9392 104.495 79.8574C104.612 79.7756 104.703 79.6638 104.758 79.5348C104.813 79.4057 104.829 79.2644 104.806 79.1268L104.196 75.7131L106.764 73.2998C107.224 72.8684 106.971 72.1119 106.349 72.0181L102.796 71.5179L101.207 68.4168C101.143 68.2917 101.043 68.1863 100.92 68.1127C100.797 68.039 100.655 68 100.51 68C100.365 68 100.223 68.039 100.1 68.1127C99.9766 68.1863 99.8773 68.2917 99.8129 68.4168L98.2242 71.5179L94.6709 72.0181C94.5265 72.0375 94.3907 72.0955 94.2789 72.1857C94.1671 72.2759 94.0838 72.3945 94.0385 72.5281C93.9932 72.6617 93.9878 72.8049 94.0228 72.9413C94.0577 73.0777 94.1318 73.2019 94.2364 73.2998L96.8042 75.7131Z" fill="#FF5A5F"/>
<path d="M98.7353 94.5V105.559C98.7353 109.977 95.1535 113.559 90.7353 113.559H51.147C46.7288 113.559 43.147 109.977 43.147 105.559V94.5" stroke="#008479" stroke-width="2" stroke-miterlimit="10" stroke-linecap="round"/>
<path d="M12.8912 17.153C14.6455 17.153 16.0677 15.7308 16.0677 13.9765C16.0677 12.2222 14.6455 10.8 12.8912 10.8C11.1369 10.8 9.71472 12.2222 9.71472 13.9765C9.71472 15.7308 11.1369 17.153 12.8912 17.153Z" fill="#FF5A5F"/>
<path d="M23.0559 17.153C24.8102 17.153 26.2323 15.7308 26.2323 13.9765C26.2323 12.2222 24.8102 10.8 23.0559 10.8C21.3015 10.8 19.8794 12.2222 19.8794 13.9765C19.8794 15.7308 21.3015 17.153 23.0559 17.153Z" fill="#008489"/>
<path d="M33.0618 17.153C34.8161 17.153 36.2383 15.7308 36.2383 13.9765C36.2383 12.2222 34.8161 10.8 33.0618 10.8C31.3075 10.8 29.8853 12.2222 29.8853 13.9765C29.8853 15.7308 31.3075 17.153 33.0618 17.153Z" fill="#008489"/>
<rect width="34" height="24" transform="translate(83 32)" fill="#008479"/>
<g opacity="0.5">
<path opacity="0.3" d="M104.739 39.2357C104.701 39.1963 104.655 39.1651 104.604 39.1438C104.553 39.1225 104.499 39.1116 104.444 39.1116C104.389 39.1116 104.335 39.1225 104.284 39.1438C104.234 39.1651 104.188 39.1963 104.149 39.2357L99.4444 44L98.0726 42.6107C98.0339 42.5713 97.9879 42.5401 97.9372 42.5188C97.8866 42.4975 97.8323 42.4866 97.7774 42.4866C97.7226 42.4866 97.6683 42.4975 97.6176 42.5188C97.567 42.5401 97.521 42.5713 97.4823 42.6107L95.5556 44.5625V46.25H107.778V42.3125L104.739 39.2357ZM92.2222 46.8125V39.5H91.6667C91.2246 39.5 90.8007 39.6778 90.4882 39.9943C90.1756 40.3108 90 40.74 90 41.1875V50.1875C90 50.6351 90.1756 51.0643 90.4882 51.3808C90.8007 51.6972 91.2246 51.875 91.6667 51.875H105C105.442 51.875 105.866 51.6972 106.179 51.3808C106.491 51.0643 106.667 50.6351 106.667 50.1875V49.625H95C94.2635 49.6242 93.5575 49.3276 93.0367 48.8003C92.516 48.2731 92.223 47.5582 92.2222 46.8125Z" fill="white"/>
<path d="M108.333 36.125H95C94.558 36.125 94.134 36.3028 93.8215 36.6193C93.5089 36.9357 93.3333 37.3649 93.3333 37.8125V46.8125C93.3333 47.2601 93.5089 47.6893 93.8215 48.0057C94.134 48.3222 94.558 48.5 95 48.5H108.333C108.775 48.5 109.199 48.3222 109.512 48.0057C109.824 47.6893 110 47.2601 110 46.8125V37.8125C110 37.3649 109.824 36.9357 109.512 36.6193C109.199 36.3028 108.775 36.125 108.333 36.125ZM97.2222 37.8125C97.5518 37.8125 97.8741 37.9115 98.1482 38.0969C98.4222 38.2823 98.6359 38.5459 98.762 38.8542C98.8881 39.1626 98.9212 39.5019 98.8568 39.8292C98.7925 40.1566 98.6338 40.4572 98.4007 40.6932C98.1676 40.9292 97.8707 41.09 97.5474 41.1551C97.2241 41.2202 96.8889 41.1868 96.5844 41.059C96.2799 40.9313 96.0196 40.715 95.8364 40.4375C95.6533 40.16 95.5555 39.8338 95.5555 39.5C95.5555 39.0524 95.7311 38.6232 96.0437 38.3068C96.3563 37.9903 96.7802 37.8125 97.2222 37.8125ZM107.778 46.25H95.5555V44.5625L97.4833 42.6106C97.522 42.5713 97.568 42.5401 97.6187 42.5188C97.6693 42.4975 97.7236 42.4865 97.7785 42.4865C97.8333 42.4865 97.8876 42.4975 97.9382 42.5188C97.9889 42.5401 98.0349 42.5713 98.0736 42.6106L99.4444 44L104.15 39.2356C104.189 39.1963 104.235 39.1651 104.285 39.1438C104.336 39.1225 104.39 39.1115 104.445 39.1115C104.5 39.1115 104.554 39.1225 104.605 39.1438C104.656 39.1651 104.702 39.1963 104.74 39.2356L107.778 42.3125V46.25Z" fill="white"/>
</g>
<rect width="34" height="24" transform="translate(125 32)" fill="#008479"/>
<g opacity="0.5">
<path opacity="0.3" d="M146.739 39.2357C146.701 39.1963 146.655 39.1651 146.604 39.1438C146.553 39.1225 146.499 39.1116 146.444 39.1116C146.389 39.1116 146.335 39.1225 146.284 39.1438C146.234 39.1651 146.188 39.1963 146.149 39.2357L141.444 44L140.073 42.6107C140.034 42.5713 139.988 42.5401 139.937 42.5188C139.887 42.4975 139.832 42.4866 139.777 42.4866C139.723 42.4866 139.668 42.4975 139.618 42.5188C139.567 42.5401 139.521 42.5713 139.482 42.6107L137.556 44.5625V46.25H149.778V42.3125L146.739 39.2357ZM134.222 46.8125V39.5H133.667C133.225 39.5 132.801 39.6778 132.488 39.9943C132.176 40.3108 132 40.74 132 41.1875V50.1875C132 50.6351 132.176 51.0643 132.488 51.3808C132.801 51.6972 133.225 51.875 133.667 51.875H147C147.442 51.875 147.866 51.6972 148.179 51.3808C148.491 51.0643 148.667 50.6351 148.667 50.1875V49.625H137C136.264 49.6242 135.557 49.3276 135.037 48.8003C134.516 48.2731 134.223 47.5582 134.222 46.8125Z" fill="white"/>
<path d="M150.333 36.125H137C136.558 36.125 136.134 36.3028 135.821 36.6193C135.509 36.9357 135.333 37.3649 135.333 37.8125V46.8125C135.333 47.2601 135.509 47.6893 135.821 48.0057C136.134 48.3222 136.558 48.5 137 48.5H150.333C150.775 48.5 151.199 48.3222 151.512 48.0057C151.824 47.6893 152 47.2601 152 46.8125V37.8125C152 37.3649 151.824 36.9357 151.512 36.6193C151.199 36.3028 150.775 36.125 150.333 36.125ZM139.222 37.8125C139.552 37.8125 139.874 37.9115 140.148 38.0969C140.422 38.2823 140.636 38.5459 140.762 38.8542C140.888 39.1626 140.921 39.5019 140.857 39.8292C140.793 40.1566 140.634 40.4572 140.401 40.6932C140.168 40.9292 139.871 41.09 139.547 41.1551C139.224 41.2202 138.889 41.1868 138.584 41.059C138.28 40.9313 138.02 40.715 137.836 40.4375C137.653 40.16 137.556 39.8338 137.556 39.5C137.556 39.0524 137.731 38.6232 138.044 38.3068C138.356 37.9903 138.78 37.8125 139.222 37.8125ZM149.778 46.25H137.556V44.5625L139.483 42.6106C139.522 42.5713 139.568 42.5401 139.619 42.5188C139.669 42.4975 139.724 42.4865 139.778 42.4865C139.833 42.4865 139.888 42.4975 139.938 42.5188C139.989 42.5401 140.035 42.5713 140.074 42.6106L141.444 44L146.15 39.2356C146.189 39.1963 146.235 39.1651 146.285 39.1438C146.336 39.1225 146.39 39.1115 146.445 39.1115C146.5 39.1115 146.554 39.1225 146.605 39.1438C146.656 39.1651 146.702 39.1963 146.74 39.2356L149.778 42.3125V46.25Z" fill="white"/>
</g>
<rect width="34" height="24" transform="translate(125 62)" fill="#008479"/>
<g opacity="0.5">
<path opacity="0.3" d="M146.739 69.2357C146.701 69.1963 146.655 69.1651 146.604 69.1438C146.553 69.1225 146.499 69.1116 146.444 69.1116C146.389 69.1116 146.335 69.1225 146.284 69.1438C146.234 69.1651 146.188 69.1963 146.149 69.2357L141.444 74L140.073 72.6107C140.034 72.5713 139.988 72.5401 139.937 72.5188C139.887 72.4975 139.832 72.4866 139.777 72.4866C139.723 72.4866 139.668 72.4975 139.618 72.5188C139.567 72.5401 139.521 72.5713 139.482 72.6107L137.556 74.5625V76.25H149.778V72.3125L146.739 69.2357ZM134.222 76.8125V69.5H133.667C133.225 69.5 132.801 69.6778 132.488 69.9943C132.176 70.3108 132 70.74 132 71.1875V80.1875C132 80.6351 132.176 81.0643 132.488 81.3808C132.801 81.6972 133.225 81.875 133.667 81.875H147C147.442 81.875 147.866 81.6972 148.179 81.3808C148.491 81.0643 148.667 80.6351 148.667 80.1875V79.625H137C136.264 79.6242 135.557 79.3276 135.037 78.8003C134.516 78.2731 134.223 77.5582 134.222 76.8125Z" fill="white"/>
<path d="M150.333 66.125H137C136.558 66.125 136.134 66.3028 135.821 66.6193C135.509 66.9357 135.333 67.3649 135.333 67.8125V76.8125C135.333 77.2601 135.509 77.6893 135.821 78.0057C136.134 78.3222 136.558 78.5 137 78.5H150.333C150.775 78.5 151.199 78.3222 151.512 78.0057C151.824 77.6893 152 77.2601 152 76.8125V67.8125C152 67.3649 151.824 66.9357 151.512 66.6193C151.199 66.3028 150.775 66.125 150.333 66.125ZM139.222 67.8125C139.552 67.8125 139.874 67.9115 140.148 68.0969C140.422 68.2823 140.636 68.5459 140.762 68.8542C140.888 69.1626 140.921 69.5019 140.857 69.8292C140.793 70.1566 140.634 70.4572 140.401 70.6932C140.168 70.9292 139.871 71.09 139.547 71.1551C139.224 71.2202 138.889 71.1868 138.584 71.059C138.28 70.9313 138.02 70.715 137.836 70.4375C137.653 70.16 137.556 69.8338 137.556 69.5C137.556 69.0524 137.731 68.6232 138.044 68.3068C138.356 67.9903 138.78 67.8125 139.222 67.8125ZM149.778 76.25H137.556V74.5625L139.483 72.6106C139.522 72.5713 139.568 72.5401 139.619 72.5188C139.669 72.4975 139.724 72.4865 139.778 72.4865C139.833 72.4865 139.888 72.4975 139.938 72.5188C139.989 72.5401 140.035 72.5713 140.074 72.6106L141.444 74L146.15 69.2356C146.189 69.1963 146.235 69.1651 146.285 69.1438C146.336 69.1225 146.39 69.1115 146.445 69.1115C146.5 69.1115 146.554 69.1225 146.605 69.1438C146.656 69.1651 146.702 69.1963 146.74 69.2356L149.778 72.3125V76.25Z" fill="white"/>
</g>
<rect width="34" height="24" transform="translate(125 92)" fill="#008479"/>
<g opacity="0.5">
<path opacity="0.3" d="M146.739 99.2357C146.701 99.1963 146.655 99.1651 146.604 99.1438C146.553 99.1225 146.499 99.1116 146.444 99.1116C146.389 99.1116 146.335 99.1225 146.284 99.1438C146.234 99.1651 146.188 99.1963 146.149 99.2357L141.444 104L140.073 102.611C140.034 102.571 139.988 102.54 139.937 102.519C139.887 102.498 139.832 102.487 139.777 102.487C139.723 102.487 139.668 102.498 139.618 102.519C139.567 102.54 139.521 102.571 139.482 102.611L137.556 104.563V106.25H149.778V102.313L146.739 99.2357ZM134.222 106.813V99.5H133.667C133.225 99.5 132.801 99.6778 132.488 99.9943C132.176 100.311 132 100.74 132 101.188V110.188C132 110.635 132.176 111.064 132.488 111.381C132.801 111.697 133.225 111.875 133.667 111.875H147C147.442 111.875 147.866 111.697 148.179 111.381C148.491 111.064 148.667 110.635 148.667 110.188V109.625H137C136.264 109.624 135.557 109.328 135.037 108.8C134.516 108.273 134.223 107.558 134.222 106.813Z" fill="white"/>
<path d="M150.333 96.125H137C136.558 96.125 136.134 96.3028 135.821 96.6193C135.509 96.9357 135.333 97.3649 135.333 97.8125V106.812C135.333 107.26 135.509 107.689 135.821 108.006C136.134 108.322 136.558 108.5 137 108.5H150.333C150.775 108.5 151.199 108.322 151.512 108.006C151.824 107.689 152 107.26 152 106.812V97.8125C152 97.3649 151.824 96.9357 151.512 96.6193C151.199 96.3028 150.775 96.125 150.333 96.125ZM139.222 97.8125C139.552 97.8125 139.874 97.9115 140.148 98.0969C140.422 98.2823 140.636 98.5459 140.762 98.8542C140.888 99.1626 140.921 99.5019 140.857 99.8292C140.793 100.157 140.634 100.457 140.401 100.693C140.168 100.929 139.871 101.09 139.547 101.155C139.224 101.22 138.889 101.187 138.584 101.059C138.28 100.931 138.02 100.715 137.836 100.438C137.653 100.16 137.556 99.8338 137.556 99.5C137.556 99.0524 137.731 98.6232 138.044 98.3068C138.356 97.9903 138.78 97.8125 139.222 97.8125ZM149.778 106.25H137.556V104.562L139.483 102.611C139.522 102.571 139.568 102.54 139.619 102.519C139.669 102.498 139.724 102.487 139.778 102.487C139.833 102.487 139.888 102.498 139.938 102.519C139.989 102.54 140.035 102.571 140.074 102.611L141.444 104L146.15 99.2356C146.189 99.1963 146.235 99.1651 146.285 99.1438C146.336 99.1225 146.39 99.1115 146.445 99.1115C146.5 99.1115 146.554 99.1225 146.605 99.1438C146.656 99.1651 146.702 99.1963 146.74 99.2356L149.778 102.312V106.25Z" fill="white"/>
</g>
</g>
<defs>
<clipPath id="clip0_636_2103">
<rect width="183" height="135" fill="white" transform="translate(0.5)"/>
</clipPath>
<clipPath id="clip1_636_2103">
<rect width="58" height="52" fill="white" transform="translate(14 36)"/>
</clipPath>
</defs>
</svg>
