<svg width="142" height="135" viewBox="0 0 142 135" fill="none" xmlns="http://www.w3.org/2000/svg">
<g clip-path="url(#clip0_636_2082)">
<path d="M137.153 6.67065C136.835 6.51182 136.597 6.353 136.279 6.11477C135.485 6.03535 134.771 5.79712 133.976 5.79712C128.338 5.79712 122.7 5.79712 117.062 5.79712C80.7706 5.79712 44.5588 5.79712 8.26765 5.79712C4.93236 5.79712 3.42354 7.30594 3.42354 10.6412C3.42354 16.5177 3.42354 22.3942 3.42354 28.2706C3.42354 54.6354 3.42354 81.0001 3.42354 107.365C3.42354 108.318 3.8206 109.191 3.97942 110.144C4.5353 110.621 5.09118 111.177 5.64707 111.653C6.60001 111.812 7.63236 112.209 8.5853 112.209C50.3559 112.209 92.1265 112.209 133.818 112.209C137.232 112.209 138.741 110.7 138.741 107.285C138.741 95.2148 138.741 83.0648 138.741 70.9942C138.741 50.903 138.741 30.8118 138.741 10.6412C138.9 9.13241 138.582 7.703 137.153 6.67065ZM71.2412 105.379C69.7324 105.379 68.3824 104.109 68.3029 102.6C68.2235 101.091 69.4941 99.6618 71.0824 99.6618C72.6706 99.5824 74.1 100.932 74.1 102.521C74.0206 104.029 72.75 105.379 71.2412 105.379ZM136.597 15.4059C136.597 26.8412 136.597 38.2765 136.518 49.6324C136.518 63.053 136.518 76.553 136.518 89.9736C136.518 92.1177 136.121 92.5148 133.897 92.6736C123.176 92.6736 112.376 92.5942 101.656 92.5942C70.6059 92.5942 39.4765 92.5942 8.42648 92.5942C6.28236 92.5942 5.80589 92.0383 5.72648 89.9736C5.72648 88.9412 5.64707 87.8295 5.64707 86.7971C5.64707 68.6118 5.72648 50.4265 5.72648 32.3207C5.72648 25.1736 5.72648 17.9471 5.72648 10.8001C5.72648 8.65594 6.20295 8.17947 8.34707 8.17947C35.7441 8.17947 63.0618 8.17947 90.4588 8.10006C91.0147 8.10006 91.65 8.10006 92.2059 8.10006C94.9853 8.10006 97.7647 8.17947 100.544 8.17947C111.582 8.17947 122.621 8.17947 133.738 8.17947C134.85 8.17947 135.882 8.25888 136.438 9.37065C136.438 11.2765 136.518 13.2618 136.518 15.1677C136.597 15.2471 136.597 15.3265 136.597 15.4059Z" fill="#8E8D97"/>
<path d="M71.2412 2.3824C91.8882 2.3824 112.535 2.3824 133.182 2.3824C134.135 2.3824 135.088 2.30299 136.041 2.46181C139.853 3.09711 142.394 6.19417 142.394 10.2442C142.394 23.8236 142.394 37.3236 142.394 50.903C142.394 69.6442 142.394 88.3853 142.394 107.206C142.394 112.844 139.456 115.782 133.897 115.782C120.079 115.782 106.262 115.782 92.3647 115.782C90.3794 115.782 90.3794 115.782 90.5382 117.768C90.6176 118.8 90.6971 119.753 90.8559 120.785C91.3324 125.232 94.1912 127.774 98.0029 129.441C98.4794 129.679 99.0353 129.6 99.5912 129.679C103.244 129.679 106.818 129.679 110.471 129.679C110.947 129.679 111.424 129.679 111.9 129.759C112.853 129.918 113.647 130.553 113.409 131.506C113.25 132.141 112.535 132.697 111.9 133.094C111.582 133.332 110.947 133.174 110.471 133.174C84.2647 133.174 58.1382 133.174 31.9324 133.174C31.6147 133.174 31.3765 133.174 31.0588 133.174C29.9471 133.174 29.1529 132.618 29.0735 131.506C29.0735 130.235 29.9471 129.759 31.0588 129.759C34.7118 129.759 38.2853 129.759 41.9382 129.759C45.9882 129.759 49.8794 127.138 51.0706 123.327C51.7059 121.262 51.7853 119.038 52.1029 116.894C52.2618 115.624 51.3088 115.862 50.5941 115.862C40.6676 115.862 30.7412 115.862 20.8147 115.862C16.6059 115.862 12.3971 115.862 8.26765 115.862C3.26471 115.862 0.167649 112.765 0.167649 107.762C0.167649 75.3618 0.167649 42.9618 0.167649 10.5618C0.00882511 5.47946 3.10588 2.3824 8.18824 2.3824C29.1529 2.3824 50.1971 2.3824 71.2412 2.3824ZM136.279 6.19417C135.485 6.11476 134.771 5.87652 133.976 5.87652C128.338 5.87652 122.7 5.87652 117.062 5.87652C80.7706 5.87652 44.5588 5.87652 8.26765 5.87652C4.93235 5.87652 3.42353 7.38534 3.42353 10.7206C3.42353 16.5971 3.42353 22.4736 3.42353 28.3501C3.42353 54.7148 3.42353 81.0795 3.42353 107.444C3.42353 108.397 3.82059 109.271 3.97941 110.224C4.5353 110.7 5.09118 111.256 5.64706 111.732C6.6 111.891 7.63235 112.288 8.5853 112.288C50.3559 112.288 92.1265 112.288 133.818 112.288C137.232 112.288 138.741 110.779 138.741 107.365C138.741 95.2942 138.741 83.1442 138.741 71.0736C138.741 50.9824 138.741 30.8912 138.741 10.7206C138.741 9.1324 138.424 7.62358 136.994 6.67064C136.835 6.51181 136.518 6.35299 136.279 6.19417ZM50.9118 129.521C64.5706 129.521 77.7529 129.521 91.0941 129.521C90.2206 128.25 89.3471 127.059 88.6324 125.788C87.2029 123.168 86.9647 120.309 86.8853 117.371C86.8059 116.1 86.4088 115.703 85.1382 115.703C75.8471 115.703 66.5559 115.703 57.2647 115.703C56.0735 115.703 55.5971 116.1 55.5177 117.291C55.2 121.738 54.5647 125.947 50.9118 129.521Z" fill="#4A374E"/>
<path d="M5.72647 111.812C6.36177 111.732 6.91765 111.494 7.55294 111.494C13.9059 111.335 20.2588 111.335 26.6118 111.177C33.1235 111.018 39.6353 110.78 46.0677 110.621C53.5324 110.382 60.9971 110.224 68.4618 110.065C74.8941 109.906 81.3265 109.668 87.8382 109.509C95.3824 109.271 102.926 109.112 110.471 108.953C116.268 108.794 122.144 108.556 127.941 108.397C131.197 108.238 133.5 106.015 133.579 102.759C133.738 99.4236 133.818 96.0883 133.897 92.8325C136.121 92.6736 136.518 92.1972 136.518 90.1325C136.518 76.7119 136.518 63.2119 136.518 49.7913C136.518 38.356 136.518 26.9207 136.597 15.5648C136.597 15.4854 136.597 15.406 136.597 15.3266C136.597 13.4207 136.518 11.4354 136.518 9.52952C136.756 8.65599 136.915 7.78246 137.153 6.90894C138.582 7.86188 138.9 9.29129 138.9 10.9589C138.9 31.0501 138.9 51.1413 138.9 71.3119C138.9 83.3825 138.9 95.5325 138.9 107.603C138.9 111.018 137.391 112.527 133.976 112.527C92.2059 112.527 50.4353 112.527 8.74412 112.527C7.71176 112.288 6.75882 111.971 5.72647 111.812Z" fill="#8E8D97"/>
<path d="M5.72648 86.8766C5.56765 87.2737 5.32942 87.7502 5.25 88.1472C5.01177 93.2296 4.85295 98.3119 4.61471 103.394C4.5353 105.697 4.29706 108 4.05883 110.303C3.82059 109.35 3.50294 108.477 3.50294 107.524C3.50294 81.159 3.50294 54.7943 3.50294 28.4296C3.50294 22.5531 3.50294 16.6766 3.50294 10.8002C3.50294 7.38547 5.01177 5.95605 8.34706 5.95605C44.6382 5.95605 80.85 5.95605 117.141 5.95605C122.779 5.95605 128.418 5.95605 134.056 5.95605C134.85 5.95605 135.565 6.11488 136.359 6.2737C135.168 6.43253 133.976 6.75017 132.785 6.82958C126.274 7.06782 119.682 7.22664 113.171 7.38547C106.738 7.54429 100.385 7.6237 93.9529 7.70311C93.3971 7.70311 92.9206 8.02076 92.3647 8.17958C91.8088 8.17958 91.1735 8.17958 90.6176 8.17958C63.2206 8.17958 35.9029 8.259 8.50589 8.259C6.36177 8.259 5.8853 8.73547 5.8853 10.8796C5.8853 18.0266 5.8853 25.2531 5.8853 32.4002C5.72647 50.5061 5.72648 68.6914 5.72648 86.8766Z" fill="#8E8D97"/>
<path d="M50.9118 129.521C54.6441 125.947 55.2 121.738 55.5177 117.371C55.5971 116.1 55.9941 115.703 57.2647 115.782C66.5559 115.862 75.8471 115.862 85.1382 115.782C86.3294 115.782 86.8059 116.1 86.8853 117.45C86.9647 120.309 87.2029 123.247 88.6324 125.868C89.3471 127.138 90.2206 128.25 91.0941 129.6C77.753 129.521 64.4912 129.521 50.9118 129.521Z" fill="#8E8D97"/>
<path d="M92.2853 8.09997C92.8412 7.94115 93.3176 7.70292 93.8735 7.6235C100.306 7.46468 106.659 7.38527 113.091 7.30586C119.603 7.14703 126.194 6.98821 132.706 6.74997C133.897 6.67056 135.088 6.43233 136.279 6.19409C136.597 6.35292 136.835 6.51174 137.153 6.74997C136.915 7.6235 136.756 8.49703 136.518 9.37056C135.882 8.2588 134.929 8.17939 133.818 8.17939C122.779 8.17939 111.741 8.17939 100.624 8.17939C97.8441 8.17939 95.0647 8.09997 92.2853 8.09997Z" fill="#8E8D97"/>
<path d="M92.2853 8.1001C95.0647 8.1001 97.8441 8.17951 100.624 8.17951C111.662 8.17951 122.7 8.17951 133.818 8.17951C134.929 8.17951 135.962 8.25892 136.518 9.37069C136.518 11.2766 136.597 13.2619 136.597 15.1677C136.597 15.2472 136.597 15.3266 136.597 15.406C136.597 26.8413 136.597 38.2766 136.518 49.6325C136.518 63.053 136.518 76.553 136.518 89.9736C136.518 92.1177 136.121 92.5148 133.897 92.6736C123.176 92.6736 112.376 92.5942 101.656 92.5942C70.6059 92.5942 39.4765 92.5942 8.42648 92.5942C6.28236 92.5942 5.80589 92.0383 5.72648 89.9736C5.72648 88.9413 5.64706 87.8295 5.64706 86.7972C5.64706 68.6119 5.72648 50.4266 5.72648 32.3207C5.72648 25.1736 5.72648 17.9472 5.72648 10.8001C5.72648 8.65598 6.20295 8.17951 8.34706 8.17951C35.7441 8.17951 63.0618 8.17951 90.4588 8.1001C91.0941 8.1001 91.65 8.1001 92.2853 8.1001ZM133.024 84.5736C133.024 84.0972 133.024 83.6207 133.024 83.1442C133.024 81.7148 133.024 80.2854 133.024 78.7766C133.024 78.3001 133.024 77.8236 133.024 77.3472C133.024 75.9177 133.024 74.4883 133.024 72.9795C133.024 72.503 133.024 72.0266 133.024 71.5501C133.024 70.1207 133.024 68.6913 133.024 67.1824C133.024 66.706 133.024 66.2295 133.024 65.753C133.024 64.3236 133.024 62.8942 133.024 61.3854C133.024 60.9089 133.024 60.4325 133.024 59.956C133.024 58.5266 133.024 57.0972 133.024 55.5883C133.024 55.1119 133.024 54.6354 133.024 54.1589C133.024 52.7295 133.024 51.3001 133.024 49.7913C133.024 49.3148 133.024 48.8383 133.024 48.3619C133.024 46.9324 133.024 45.503 133.024 43.9942C133.024 43.5177 133.024 43.0413 133.024 42.5648C133.024 41.1354 133.024 39.706 133.024 38.1972C133.024 37.7207 133.024 37.2442 133.024 36.7677C133.024 35.3383 133.024 33.9089 133.024 32.4001C133.024 31.9236 133.024 31.4472 133.024 30.9707C133.024 29.5413 133.024 28.1119 133.024 26.603C133.024 26.1266 133.024 25.6501 133.024 25.1736C133.024 23.7442 133.024 22.3148 133.024 20.806C133.024 20.3295 133.024 19.853 133.024 19.3766C133.024 17.9472 133.024 16.5177 133.024 15.0089C133.024 14.5325 133.024 14.056 133.024 13.5795C133.024 12.9442 133.024 12.3089 133.024 11.5942C131.912 11.5942 130.879 11.5942 129.926 11.5942C129.45 11.5942 128.974 11.5942 128.497 11.5942C127.068 11.5942 125.638 11.5942 124.129 11.5942C123.653 11.5942 123.176 11.5942 122.7 11.5942C121.271 11.5942 119.841 11.5942 118.332 11.5942C117.856 11.5942 117.379 11.5942 116.903 11.5942C115.474 11.5942 114.044 11.5942 112.535 11.5942C112.059 11.5942 111.582 11.5942 111.106 11.5942C109.676 11.5942 108.247 11.5942 106.738 11.5942C106.262 11.5942 105.785 11.5942 105.309 11.5942C103.879 11.5942 102.45 11.5942 100.941 11.5942C100.465 11.5942 99.9882 11.5942 99.5118 11.5942C98.0824 11.5942 96.6529 11.5942 95.1441 11.5942C94.6676 11.5942 94.1912 11.5942 93.7147 11.5942C92.2853 11.5942 90.8559 11.5942 89.3471 11.5942C88.8706 11.5942 88.3941 11.5942 87.9177 11.5942C86.4882 11.5942 85.0588 11.5942 83.55 11.5942C83.0735 11.5942 82.5971 11.5942 82.1206 11.5942C80.6912 11.5942 79.2618 11.5942 77.7529 11.5942C77.2765 11.5942 76.8 11.5942 76.3235 11.5942C74.8941 11.5942 73.4647 11.5942 71.9559 11.5942C71.4794 11.5942 71.0029 11.5942 70.5265 11.5942C69.0971 11.5942 67.6676 11.5942 66.1588 11.5942C65.6824 11.5942 65.2059 11.5942 64.7294 11.5942C63.3 11.5942 61.8706 11.5942 60.3618 11.5942C59.8853 11.5942 59.4088 11.5942 58.9324 11.5942C57.5029 11.5942 56.0735 11.5942 54.5647 11.5942C54.0882 11.5942 53.6118 11.5942 53.1353 11.5942C51.7059 11.5942 50.2765 11.5942 48.7677 11.5942C48.2912 11.5942 47.8147 11.5942 47.3382 11.5942C45.9088 11.5942 44.4794 11.5942 42.9706 11.5942C42.4941 11.5942 42.0177 11.5942 41.5412 11.5942C40.1118 11.5942 38.6824 11.5942 37.1735 11.5942C36.6971 11.5942 36.2206 11.5942 35.7441 11.5942C34.3147 11.5942 32.8853 11.5942 31.3765 11.5942C30.9 11.5942 30.4235 11.5942 29.9471 11.5942C28.5177 11.5942 27.0882 11.5942 25.5794 11.5942C25.1029 11.5942 24.6265 11.5942 24.15 11.5942C22.7206 11.5942 21.2912 11.5942 19.7824 11.5942C19.3059 11.5942 18.8294 11.5942 18.3529 11.5942C15.3353 11.5942 12.2382 11.5942 9.14118 11.5942C9.14118 14.7707 9.14118 17.7883 9.14118 20.806C9.14118 21.2825 9.14118 21.7589 9.14118 22.2354C9.14118 23.6648 9.14118 25.0942 9.14118 26.603C9.14118 27.0795 9.14118 27.556 9.14118 28.0324C9.14118 29.4619 9.14118 30.8913 9.14118 32.4001C9.14118 32.8766 9.14118 33.353 9.14118 33.8295C9.14118 35.2589 9.14118 36.6883 9.14118 38.1972C9.14118 38.6736 9.14118 39.1501 9.14118 39.6266C9.14118 41.056 9.14118 42.4854 9.14118 43.9942C9.14118 44.4707 9.14118 44.9472 9.14118 45.4236C9.14118 46.853 9.14118 48.2825 9.14118 49.7913C9.14118 50.2677 9.14118 50.7442 9.14118 51.2207C9.14118 52.6501 9.14118 54.0795 9.14118 55.5883C9.14118 56.0648 9.14118 56.5413 9.14118 57.0177C9.14118 58.4472 9.14118 59.8766 9.14118 61.3854C9.14118 61.8619 9.14118 62.3383 9.14118 62.8148C9.14118 64.2442 9.14118 65.6736 9.14118 67.1824C9.14118 67.6589 9.14118 68.1354 9.14118 68.6119C9.14118 70.0413 9.14118 71.4707 9.14118 72.9795C9.14118 73.456 9.14118 73.9324 9.14118 74.4089C9.14118 75.8383 9.14118 77.2677 9.14118 78.7766C9.14118 79.253 9.14118 79.7295 9.14118 80.206C9.14118 81.6354 9.14118 83.0648 9.14118 84.5736C9.14118 85.0501 9.14118 85.5266 9.14118 86.003C9.14118 87.0354 9.14118 88.0677 9.14118 89.1001C9.85589 89.1001 10.4912 89.1001 11.1265 89.1001C11.6029 89.1001 12.0794 89.1001 12.5559 89.1001C13.9853 89.1001 15.4147 89.1001 16.9235 89.1001C17.4 89.1001 17.8765 89.1001 18.3529 89.1001C19.7824 89.1001 21.2118 89.1001 22.7206 89.1001C23.1971 89.1001 23.6735 89.1001 24.15 89.1001C25.5794 89.1001 27.0088 89.1001 28.5177 89.1001C28.9941 89.1001 29.4706 89.1001 29.9471 89.1001C31.3765 89.1001 32.8059 89.1001 34.3147 89.1001C34.7912 89.1001 35.2677 89.1001 35.7441 89.1001C37.1735 89.1001 38.6029 89.1001 40.1118 89.1001C40.5882 89.1001 41.0647 89.1001 41.5412 89.1001C42.9706 89.1001 44.4 89.1001 45.9088 89.1001C46.3853 89.1001 46.8618 89.1001 47.3382 89.1001C48.7677 89.1001 50.1971 89.1001 51.7059 89.1001C52.1824 89.1001 52.6588 89.1001 53.1353 89.1001C54.5647 89.1001 55.9941 89.1001 57.5029 89.1001C57.9794 89.1001 58.4559 89.1001 58.9324 89.1001C60.3618 89.1001 61.7912 89.1001 63.3 89.1001C63.7765 89.1001 64.2529 89.1001 64.7294 89.1001C66.1588 89.1001 67.5882 89.1001 69.0971 89.1001C69.5735 89.1001 70.05 89.1001 70.5265 89.1001C71.9559 89.1001 73.3853 89.1001 74.8941 89.1001C75.3706 89.1001 75.8471 89.1001 76.3235 89.1001C77.7529 89.1001 79.1824 89.1001 80.6912 89.1001C81.1676 89.1001 81.6441 89.1001 82.1206 89.1001C83.55 89.1001 84.9794 89.1001 86.4882 89.1001C86.9647 89.1001 87.4412 89.1001 87.9177 89.1001C89.3471 89.1001 90.7765 89.1001 92.2853 89.1001C92.7618 89.1001 93.2382 89.1001 93.7147 89.1001C95.1441 89.1001 96.5735 89.1001 98.0824 89.1001C98.5588 89.1001 99.0353 89.1001 99.5118 89.1001C100.941 89.1001 102.371 89.1001 103.879 89.1001C104.356 89.1001 104.832 89.1001 105.309 89.1001C106.738 89.1001 108.168 89.1001 109.676 89.1001C110.153 89.1001 110.629 89.1001 111.106 89.1001C112.535 89.1001 113.965 89.1001 115.474 89.1001C115.95 89.1001 116.426 89.1001 116.903 89.1001C118.332 89.1001 119.762 89.1001 121.271 89.1001C121.747 89.1001 122.224 89.1001 122.7 89.1001C124.129 89.1001 125.559 89.1001 127.068 89.1001C127.544 89.1001 128.021 89.1001 128.497 89.1001C130.006 89.1001 131.515 89.1001 133.103 89.1001C133.024 87.5119 133.024 86.0825 133.024 84.5736Z" fill="#4A374E"/>
<path d="M71.2412 105.379C69.7323 105.379 68.3823 104.109 68.3029 102.6C68.2235 101.091 69.4941 99.6618 71.0824 99.6618C72.6706 99.5824 74.1 100.932 74.1 102.521C74.0206 104.029 72.75 105.379 71.2412 105.379Z" fill="#4A374E"/>
<path d="M133.024 11.6736H9.3V89.1001H133.024V11.6736Z" fill="#E6FAFF"/>
<path d="M93.6302 84H54.3698C53.1059 84 52 82.9371 52 81.5472V21.4528C52 20.1447 53.0269 19 54.3698 19H93.6302C94.8941 19 96 20.0629 96 21.4528V81.5472C96 82.9371 94.8941 84 93.6302 84Z" fill="#DFF5FB"/>
<path d="M92.6302 83H53.3698C52.1059 83 51 81.9371 51 80.5472V20.4528C51 19.1447 52.0269 18 53.3698 18H92.6302C93.8941 18 95 19.0629 95 20.4528V80.5472C95 81.9371 93.8941 83 92.6302 83Z" fill="#D6F4FC"/>
<path d="M90.6302 81H51.3698C50.1059 81 49 79.9371 49 78.5472V18.4528C49 17.1447 50.0269 16 51.3698 16H90.6302C91.8941 16 93 17.0629 93 18.4528V78.5472C93 79.9371 91.8941 81 90.6302 81Z" fill="#F9FEFF"/>
<g clip-path="url(#clip1_636_2082)">
<path opacity="0.3" d="M75.8214 29.375H66.1786C64.404 29.375 62.9643 30.5637 62.9643 32.0312V33.625C62.9643 35.3158 63.6416 36.9373 64.8472 38.1328C66.0528 39.3284 67.6879 40 69.3929 40H72.6072C74.3121 40 75.9472 39.3284 77.1528 38.1328C78.3584 36.9373 79.0357 35.3158 79.0357 33.625V32.0312C79.0357 30.5637 77.596 29.375 75.8214 29.375ZM68.5893 34.4219L67.7857 36.8125L66.9822 34.4219L64.5714 33.625L66.9822 32.8281L67.7857 30.4375L68.5893 32.8281L71 33.625L68.5893 34.4219ZM67.7857 52.75C67.5016 52.75 67.229 52.8619 67.0281 53.0612C66.8272 53.2605 66.7143 53.5307 66.7143 53.8125V57H68.8572V53.8125C68.8572 53.5307 68.7443 53.2605 68.5433 53.0612C68.3424 52.8619 68.0699 52.75 67.7857 52.75ZM74.2143 52.75C74.0024 52.75 73.7952 52.8123 73.619 52.9291C73.4428 53.0458 73.3055 53.2118 73.2244 53.4059C73.1433 53.6 73.1221 53.8137 73.1635 54.0198C73.2048 54.2259 73.3068 54.4152 73.4567 54.5638C73.6065 54.7124 73.7974 54.8136 74.0053 54.8546C74.2131 54.8956 74.4285 54.8745 74.6243 54.7941C74.8201 54.7137 74.9874 54.5775 75.1052 54.4028C75.2229 54.2281 75.2857 54.0226 75.2857 53.8125C75.2857 53.5307 75.1728 53.2605 74.9719 53.0612C74.771 52.8619 74.4985 52.75 74.2143 52.75Z" fill="#FF5A5F"/>
<path d="M77.9375 44.343C75.8709 45.6693 73.4617 46.375 71 46.375C68.5383 46.375 66.1291 45.6693 64.0625 44.343C59.5424 44.8145 56 48.5664 56 53.175V53.8125C56 54.6579 56.3386 55.4686 56.9414 56.0664C57.5442 56.6642 58.3618 57 59.2143 57H64.5714V52.75C64.5714 52.1864 64.7972 51.6459 65.1991 51.2474C65.6009 50.8489 66.146 50.625 66.7143 50.625H75.2857C75.854 50.625 76.3991 50.8489 76.8009 51.2474C77.2028 51.6459 77.4286 52.1864 77.4286 52.75V57H82.7857C83.6382 57 84.4558 56.6642 85.0586 56.0664C85.6614 55.4686 86 54.6579 86 53.8125V53.175C86 48.5664 82.4576 44.8145 77.9375 44.343ZM60.2857 37.875H61.1897C62.0214 39.7695 63.3927 41.382 65.1355 42.5145C66.8782 43.647 68.9164 44.2503 71 44.2503C73.0836 44.2503 75.1218 43.647 76.8645 42.5145C78.6073 41.382 79.9786 39.7695 80.8103 37.875H81.7143C81.9984 37.875 82.271 37.7631 82.4719 37.5638C82.6728 37.3646 82.7857 37.0943 82.7857 36.8125V30.4375C82.7857 30.1557 82.6728 29.8855 82.4719 29.6862C82.271 29.487 81.9984 29.375 81.7143 29.375H80.8103C79.9786 27.4805 78.6073 25.8681 76.8645 24.7356C75.1218 23.603 73.0836 22.9998 71 22.9998C68.9164 22.9998 66.8782 23.603 65.1355 24.7356C63.3927 25.8681 62.0214 27.4805 61.1897 29.375H60.2857C60.0016 29.375 59.729 29.487 59.5281 29.6862C59.3272 29.8855 59.2143 30.1557 59.2143 30.4375V36.8125C59.2143 37.0943 59.3272 37.3646 59.5281 37.5638C59.729 37.7631 60.0016 37.875 60.2857 37.875ZM62.9643 32.0313C62.9643 30.5637 64.404 29.375 66.1786 29.375H75.8214C77.596 29.375 79.0357 30.5637 79.0357 32.0313V33.625C79.0357 35.3158 78.3584 36.9373 77.1528 38.1328C75.9472 39.3284 74.3121 40 72.6071 40H69.3929C67.6879 40 66.0528 39.3284 64.8472 38.1328C63.6416 36.9373 62.9643 35.3158 62.9643 33.625V32.0313Z" fill="#FF5A5F"/>
</g>
<path d="M79.5 65.5765L76.4824 62.5588L69.2559 70.5L66.7147 67.8794L63.6176 70.9765L66.3176 73.6765L69.3353 76.6941L72.2735 73.4382L79.5 65.5765Z" fill="#008489"/>
<path d="M83.7088 85.5265C83.55 85.4471 83.4706 85.4471 83.3118 85.3677C82.9941 85.2089 82.7559 84.9706 82.6765 84.653C82.2794 83.7 81.8824 82.7471 81.4853 81.7942C81.4853 81.7147 81.4059 81.7147 81.4059 81.6353C81.4059 81.7147 81.3265 81.7147 81.3265 81.7942C80.85 82.2706 80.3735 82.7471 79.9765 83.2236C79.6588 83.5412 79.3412 83.6206 78.8647 83.5412C78.3882 83.3824 78.0706 82.9853 78.0706 82.4294C78.0706 81.3177 78.0706 80.1265 78.0706 79.0147C78.0706 76.3942 78.0706 73.6942 78.0706 71.0736C78.0706 70.7559 78.15 70.5177 78.3088 70.2794C78.4676 70.0412 78.7059 69.8824 79.0235 69.803C79.1029 69.803 79.2618 69.803 79.3412 69.803C79.6588 69.8824 79.8971 70.1206 80.2147 70.3589C82.9147 72.9794 85.6147 75.5206 88.2353 78.1412C88.5529 78.3794 88.7118 78.6971 88.6324 79.0942C88.5529 79.65 88.0765 80.0471 87.5206 80.0471C86.8853 80.0471 86.1706 80.0471 85.5353 80.0471C85.4559 80.0471 85.3765 80.0471 85.2971 80.0471C85.2971 80.1265 85.3765 80.2059 85.3765 80.2059C85.7735 81.1589 86.1706 82.1118 86.6471 83.1441C86.9647 83.8589 86.6471 84.5736 85.9324 84.8912C85.4559 85.05 85.0588 85.2883 84.5824 85.4471C84.5029 85.5265 84.3441 85.5265 84.1853 85.6059C83.9471 85.5265 83.8677 85.5265 83.7088 85.5265ZM78.9441 76.6324C78.9441 77.2677 78.9441 77.9824 78.9441 78.6177C78.9441 79.8883 78.9441 81.0794 78.9441 82.35C78.9441 82.4294 79.0235 82.5089 79.0235 82.5883C79.1029 82.5883 79.1824 82.5089 79.1824 82.5089L79.2618 82.4294C79.9765 81.7147 80.6912 81 81.4059 80.2059L81.4853 80.1265C81.5647 80.0471 81.7235 80.0471 81.8029 80.2059C81.8029 80.2853 81.8824 80.2853 81.8824 80.3647C82.4382 81.7147 82.9941 83.0647 83.55 84.3353C83.6294 84.5736 83.7882 84.653 84.0265 84.5736C84.4235 84.4147 84.9 84.1765 85.2971 84.0177C85.6147 83.8589 85.6147 83.7794 85.5353 83.4618C84.9794 82.1118 84.4235 80.7618 83.7882 79.4118C83.6294 79.0942 83.7088 79.0147 84.0265 79.0147C85.0588 79.0147 86.0912 79.0147 87.1235 79.0147C87.203 79.0147 87.2824 79.0147 87.4412 78.9353C87.3618 78.8559 87.3618 78.7765 87.2824 78.6971C85.4559 76.95 83.7088 75.203 81.8824 73.5353C80.9294 72.6618 80.0559 71.7089 79.1029 70.8353C79.0235 70.7559 78.9441 70.7559 78.9441 70.7559C78.9441 70.8353 78.8647 70.9147 78.8647 70.9147C78.8647 70.9147 78.8647 70.9147 78.8647 70.9942C78.9441 72.8206 78.9441 74.7265 78.9441 76.6324Z" fill="#4A374E" stroke="#4A374E" stroke-miterlimit="10"/>
<path d="M78.9441 76.6324C78.9441 74.7265 78.9441 72.8206 78.9441 70.9148C78.9441 70.9148 78.9441 70.9147 78.9441 70.8353C78.9441 70.7559 79.0235 70.6765 79.0235 70.6765C79.1029 70.6765 79.1824 70.7559 79.1824 70.7559C80.1353 71.6295 81.0088 72.5824 81.9618 73.4559C83.7882 75.203 85.5353 76.95 87.3618 78.6177C87.4412 78.6971 87.4412 78.7765 87.5206 78.8559C87.4412 78.8559 87.3618 78.9353 87.2029 78.9353C86.1706 78.9353 85.1382 78.9353 84.1059 78.9353C83.7882 78.9353 83.7088 79.0148 83.8676 79.3324C84.4235 80.6824 84.9794 82.0324 85.6147 83.3824C85.7735 83.7 85.6941 83.7795 85.3765 83.9383C84.9794 84.0971 84.5029 84.3353 84.1059 84.4942C83.8676 84.5736 83.7088 84.5736 83.6294 84.2559C83.0735 82.9059 82.5176 81.5559 81.9618 80.2853C81.9618 80.2059 81.9618 80.2059 81.8824 80.1265C81.8029 79.9677 81.7235 79.9677 81.5647 80.0471L81.4853 80.1265C80.7706 80.8412 80.0559 81.5559 79.3412 82.35L79.2618 82.4295C79.1824 82.4295 79.1029 82.5089 79.1029 82.5089C79.1029 82.4295 79.0235 82.35 79.0235 82.2706C79.0235 81 79.0235 79.8089 79.0235 78.5383C78.9441 77.9824 78.9441 77.2677 78.9441 76.6324Z" fill="white"/>
<path opacity="0.1" d="M29.5 28.4062C22.5948 28.4062 17 34.043 17 41C17 47.957 22.5948 53.5938 29.5 53.5938C36.4052 53.5938 42 47.957 42 41C42 34.043 36.4052 28.4062 29.5 28.4062ZM29.5 33.2812C30.3773 33.2812 31.2348 33.5433 31.9642 34.0344C32.6936 34.5254 33.2621 35.2233 33.5979 36.0399C33.9336 36.8564 34.0214 37.755 33.8503 38.6218C33.6791 39.4887 33.2567 40.2849 32.6364 40.9099C32.016 41.5349 31.2257 41.9605 30.3653 42.1329C29.5049 42.3053 28.6131 42.2168 27.8026 41.8786C26.9921 41.5404 26.2994 40.9676 25.812 40.2327C25.3247 39.4978 25.0645 38.6338 25.0645 37.75C25.0645 36.5648 25.5318 35.4282 26.3636 34.5901C27.1955 33.7521 28.3236 33.2812 29.5 33.2812ZM29.5 50.75C28.0931 50.7494 26.7033 50.4392 25.4279 49.841C24.1524 49.2428 23.0221 48.371 22.1159 47.2867C23.0635 45.4891 24.9183 44.25 27.0806 44.25C27.202 44.251 27.3226 44.2698 27.4385 44.3059C28.7737 44.773 30.2263 44.773 31.5615 44.3059C31.6774 44.2698 31.798 44.251 31.9194 44.25C34.0817 44.25 35.9365 45.4891 36.8841 47.2867C35.9779 48.371 34.8476 49.2428 33.5721 49.841C32.2967 50.4392 30.9069 50.7494 29.5 50.75Z" fill="#008479"/>
<path opacity="0.5" d="M29.5 42.2188C30.3773 42.2188 31.2348 41.9567 31.9642 41.4656C32.6936 40.9746 33.2621 40.2767 33.5979 39.4601C33.9336 38.6436 34.0214 37.745 33.8503 36.8782C33.6791 36.0113 33.2567 35.2151 32.6364 34.5901C32.0161 33.9652 31.2257 33.5395 30.3653 33.3671C29.5049 33.1947 28.6131 33.2832 27.8026 33.6214C26.9921 33.9596 26.2994 34.5324 25.812 35.2673C25.3247 36.0022 25.0645 36.8662 25.0645 37.75C25.0645 38.9352 25.5318 40.0718 26.3636 40.9099C27.1955 41.7479 28.3236 42.2188 29.5 42.2188ZM31.9194 44.25C31.798 44.251 31.6775 44.2698 31.5615 44.3059C30.2263 44.773 28.7737 44.773 27.4385 44.3059C27.3226 44.2698 27.202 44.251 27.0807 44.25C24.9184 44.25 23.0635 45.4891 22.1159 47.2867C25.5469 51.3954 31.6341 51.9241 35.7122 48.4674C36.1356 48.1083 36.5277 47.7133 36.8841 47.2867C35.9365 45.4891 34.0817 44.25 31.9194 44.25Z" fill="#008479"/>
<path opacity="0.1" d="M112.5 28.4062C105.595 28.4062 100 34.043 100 41C100 47.957 105.595 53.5938 112.5 53.5938C119.405 53.5938 125 47.957 125 41C125 34.043 119.405 28.4062 112.5 28.4062ZM112.5 33.2812C113.377 33.2812 114.235 33.5433 114.964 34.0344C115.694 34.5254 116.262 35.2233 116.598 36.0399C116.934 36.8564 117.021 37.755 116.85 38.6218C116.679 39.4887 116.257 40.2849 115.636 40.9099C115.016 41.5349 114.226 41.9605 113.365 42.1329C112.505 42.3053 111.613 42.2168 110.803 41.8786C109.992 41.5404 109.299 40.9676 108.812 40.2327C108.325 39.4978 108.065 38.6338 108.065 37.75C108.065 36.5648 108.532 35.4282 109.364 34.5901C110.195 33.7521 111.324 33.2812 112.5 33.2812ZM112.5 50.75C111.093 50.7494 109.703 50.4392 108.428 49.841C107.152 49.2428 106.022 48.371 105.116 47.2867C106.064 45.4891 107.918 44.25 110.081 44.25C110.202 44.251 110.323 44.2698 110.439 44.3059C111.774 44.773 113.226 44.773 114.561 44.3059C114.677 44.2698 114.798 44.251 114.919 44.25C117.082 44.25 118.936 45.4891 119.884 47.2867C118.978 48.371 117.848 49.2428 116.572 49.841C115.297 50.4392 113.907 50.7494 112.5 50.75Z" fill="#008479"/>
<path opacity="0.5" d="M112.5 42.2188C113.377 42.2188 114.235 41.9567 114.964 41.4656C115.694 40.9746 116.262 40.2767 116.598 39.4601C116.934 38.6436 117.021 37.745 116.85 36.8782C116.679 36.0113 116.257 35.2151 115.636 34.5901C115.016 33.9652 114.226 33.5395 113.365 33.3671C112.505 33.1947 111.613 33.2832 110.803 33.6214C109.992 33.9596 109.299 34.5324 108.812 35.2673C108.325 36.0022 108.065 36.8662 108.065 37.75C108.065 38.9352 108.532 40.0718 109.364 40.9099C110.195 41.7479 111.324 42.2188 112.5 42.2188ZM114.919 44.25C114.798 44.251 114.677 44.2698 114.561 44.3059C113.226 44.773 111.774 44.773 110.439 44.3059C110.323 44.2698 110.202 44.251 110.081 44.25C107.918 44.25 106.064 45.4891 105.116 47.2867C108.547 51.3954 114.634 51.9241 118.712 48.4674C119.136 48.1083 119.528 47.7133 119.884 47.2867C118.936 45.4891 117.082 44.25 114.919 44.25Z" fill="#008479"/>
</g>
<defs>
<clipPath id="clip0_636_2082">
<rect width="142" height="135" fill="white"/>
</clipPath>
<clipPath id="clip1_636_2082">
<rect width="30" height="34" fill="white" transform="translate(56 23)"/>
</clipPath>
</defs>
</svg>
