<svg width="154" height="135" viewBox="0 0 154 135" fill="none" xmlns="http://www.w3.org/2000/svg">
<g clip-path="url(#clip0_636_2126)">
<mask id="path-1-outside-1_636_2126" maskUnits="userSpaceOnUse" x="51" y="-0.00366211" width="103" height="135" fill="black">
<rect fill="white" x="51" y="-0.00366211" width="103" height="135"/>
<path fill-rule="evenodd" clip-rule="evenodd" d="M118.333 31.7047L118.333 3.99636H119.842C120.623 3.99444 121.396 4.14641 122.118 4.44356C122.839 4.74071 123.495 5.17723 124.048 5.72812L148.268 29.9729C148.817 30.5219 149.253 31.1738 149.55 31.8912C149.847 32.6085 150 33.3774 150 34.1539L150 35.663V124.755C149.998 125.533 149.843 126.303 149.543 127.02C149.244 127.738 148.806 128.39 148.255 128.939C147.703 129.487 147.049 129.922 146.33 130.218C145.611 130.514 144.84 130.665 144.062 130.663H60.9078C60.1301 130.661 59.3603 130.506 58.6425 130.206C57.9246 129.907 57.2728 129.469 56.7242 128.918C56.1756 128.366 55.741 127.712 55.4452 126.993C55.1493 126.274 54.9981 125.503 55 124.725V9.90416C55.002 9.12639 55.1571 8.35661 55.4565 7.63879C55.756 6.92097 56.1939 6.26915 56.7452 5.72056C57.2966 5.17197 57.9506 4.73735 58.6699 4.44151C59.3892 4.14567 60.1597 3.9944 60.9375 3.99636L116.333 3.99636L118.333 31.7047Z"/>
</mask>
<path fill-rule="evenodd" clip-rule="evenodd" d="M118.333 31.7047L118.333 3.99636H119.842C120.623 3.99444 121.396 4.14641 122.118 4.44356C122.839 4.74071 123.495 5.17723 124.048 5.72812L148.268 29.9729C148.817 30.5219 149.253 31.1738 149.55 31.8912C149.847 32.6085 150 33.3774 150 34.1539L150 35.663V124.755C149.998 125.533 149.843 126.303 149.543 127.02C149.244 127.738 148.806 128.39 148.255 128.939C147.703 129.487 147.049 129.922 146.33 130.218C145.611 130.514 144.84 130.665 144.062 130.663H60.9078C60.1301 130.661 59.3603 130.506 58.6425 130.206C57.9246 129.907 57.2728 129.469 56.7242 128.918C56.1756 128.366 55.741 127.712 55.4452 126.993C55.1493 126.274 54.9981 125.503 55 124.725V9.90416C55.002 9.12639 55.1571 8.35661 55.4565 7.63879C55.756 6.92097 56.1939 6.26915 56.7452 5.72056C57.2966 5.17197 57.9506 4.73735 58.6699 4.44151C59.3892 4.14567 60.1597 3.9944 60.9375 3.99636L116.333 3.99636L118.333 31.7047Z" fill="#E6FAFF"/>
<path d="M118.333 3.99636V-0.00364423H114.333V3.99635L118.333 3.99636ZM118.333 31.7047L114.344 31.9926L122.333 31.7047L118.333 31.7047ZM119.842 3.99636V7.99637L119.852 7.99634L119.842 3.99636ZM124.048 5.72812L126.878 2.90114L126.872 2.8948L124.048 5.72812ZM148.268 29.9729L145.438 32.7999L145.44 32.8013L148.268 29.9729ZM150 34.1539L146 34.1538V34.1539L150 34.1539ZM150 35.663L146 35.663V35.663H150ZM150 124.755L154 124.765V124.755H150ZM144.062 130.663L144.072 126.663H144.062V130.663ZM60.9078 130.663L60.8978 134.663H60.9078V130.663ZM58.6425 130.206L60.1824 126.515H60.1824L58.6425 130.206ZM56.7242 128.918L53.8887 131.739H53.8887L56.7242 128.918ZM55 124.725L59 124.735V124.725H55ZM55 9.90416L51 9.89415V9.90416H55ZM55.4565 7.63879L59.1482 9.17878L55.4565 7.63879ZM60.9375 3.99636L60.9275 7.99636H60.9375V3.99636ZM116.333 3.99636L120.323 3.70838L120.055 -0.00364351H116.333V3.99636ZM114.333 3.99635L114.333 31.7047L122.333 31.7047L122.333 3.99636L114.333 3.99635ZM119.842 -0.00364423H118.333V7.99636H119.842V-0.00364423ZM123.641 0.74485C122.433 0.247507 121.139 -0.00683546 119.833 -0.00363207L119.852 7.99634C120.107 7.99572 120.359 8.04531 120.595 8.14227L123.641 0.74485ZM126.872 2.8948C125.946 1.97277 124.848 1.24219 123.641 0.74485L120.595 8.14227C120.83 8.23924 121.044 8.38168 121.225 8.56144L126.872 2.8948ZM151.098 27.1459L126.878 2.90114L121.218 8.55511L145.438 32.7999L151.098 27.1459ZM153.245 30.3605C152.747 29.1578 152.017 28.065 151.097 27.1445L145.44 32.8013C145.617 32.9789 145.758 33.1898 145.854 33.4218L153.245 30.3605ZM154 34.1539C154 32.8522 153.744 31.5631 153.245 30.3605L145.854 33.4218C145.95 33.6539 146 33.9027 146 34.1538L154 34.1539ZM154 35.663L154 34.1539L146 34.1539L146 35.663L154 35.663ZM146 35.663V124.755H154V35.663H146ZM146 124.745C145.999 124.998 145.949 125.247 145.852 125.481L153.235 128.56C153.737 127.358 153.997 126.068 154 124.765L146 124.745ZM145.852 125.481C145.755 125.714 145.612 125.925 145.433 126.103L151.076 131.774C152 130.855 152.733 129.763 153.235 128.56L145.852 125.481ZM145.433 126.103C145.254 126.281 145.042 126.422 144.809 126.518L147.852 133.917C149.057 133.421 150.152 132.693 151.076 131.774L145.433 126.103ZM144.809 126.518C144.575 126.614 144.325 126.664 144.072 126.663L144.052 134.663C145.355 134.666 146.646 134.413 147.852 133.917L144.809 126.518ZM144.062 126.663H60.9078V134.663H144.062V126.663ZM60.9178 126.663C60.6653 126.662 60.4155 126.612 60.1824 126.515L57.1025 133.898C58.3051 134.4 59.5948 134.66 60.8978 134.663L60.9178 126.663ZM60.1824 126.515C59.9495 126.418 59.7378 126.275 59.5597 126.096L53.8887 131.739C54.8078 132.663 55.8998 133.396 57.1025 133.898L60.1824 126.515ZM59.5597 126.096C59.3816 125.917 59.2405 125.705 59.1445 125.472L51.7458 128.515C52.2415 129.72 52.9696 130.815 53.8887 131.739L59.5597 126.096ZM59.1445 125.472C59.0485 125.238 58.9994 124.988 59 124.735L51 124.715C50.9968 126.018 51.2502 127.309 51.7458 128.515L59.1445 125.472ZM59 124.725V9.90416H51V124.725H59ZM59 9.91418C59.0006 9.66169 59.051 9.4118 59.1482 9.17878L51.7649 6.09881C51.2632 7.30143 51.0033 8.59109 51 9.89415L59 9.91418ZM59.1482 9.17878C59.2454 8.94575 59.3876 8.73415 59.5665 8.55607L53.9239 2.88505C53.0002 3.80415 52.2665 4.89618 51.7649 6.09881L59.1482 9.17878ZM59.5665 8.55607C59.7455 8.37798 59.9578 8.23689 60.1913 8.14085L57.1484 0.742161C55.9433 1.2378 54.8476 1.96596 53.9239 2.88505L59.5665 8.55607ZM60.1913 8.14085C60.4248 8.04481 60.675 7.99571 60.9275 7.99634L60.9476 -0.00363088C59.6445 -0.00690079 58.3535 0.24652 57.1484 0.742161L60.1913 8.14085ZM60.9375 7.99636H116.333V-0.00364351H60.9375V7.99636ZM112.344 4.28433L114.344 31.9926L122.323 31.4167L120.323 3.70838L112.344 4.28433Z" fill="#4A374E" mask="url(#path-1-outside-1_636_2126)"/>
<path d="M122.292 35.75C121.242 35.75 120.235 35.3319 119.493 34.5876C118.75 33.8433 118.333 32.8338 118.333 31.7813V4.00002H60.9375C60.1597 3.99806 59.3892 4.14972 58.6699 4.44634C57.9506 4.74296 57.2966 5.17872 56.7452 5.72876C56.1939 6.2788 55.756 6.93233 55.4565 7.65204C55.1571 8.37175 55.002 9.14356 55 9.92338V125.047C54.9981 125.827 55.1493 126.599 55.4452 127.32C55.741 128.042 56.1756 128.697 56.7242 129.25C57.2728 129.803 57.9246 130.242 58.6425 130.542C59.3603 130.842 60.1301 130.998 60.9078 131H144.062C144.84 131.002 145.611 130.85 146.33 130.554C147.049 130.257 147.703 129.821 148.255 129.271C148.806 128.721 149.244 128.068 149.543 127.348C149.843 126.628 149.998 125.856 150 125.077V35.75H122.292ZM136.146 111.156C136.146 112.209 135.729 113.218 134.986 113.963C134.244 114.707 133.237 115.125 132.188 115.125H72.8125C71.7627 115.125 70.7559 114.707 70.0136 113.963C69.2712 113.218 68.8542 112.209 68.8542 111.156V63.5313C68.8542 62.4787 69.2712 61.4692 70.0136 60.7249C70.7559 59.9806 71.7627 59.5625 72.8125 59.5625H132.188C133.237 59.5625 134.244 59.9806 134.986 60.7249C135.729 61.4692 136.146 62.4787 136.146 63.5313V111.156Z" fill="#E6FAFF"/>
<path d="M100 16.4688C91.9727 16.4688 85.4688 22.9727 85.4688 31C85.4688 39.0273 91.9727 45.5312 100 45.5312C108.027 45.5312 114.531 39.0273 114.531 31C114.531 22.9727 108.027 16.4688 100 16.4688ZM100 42.7188C93.5254 42.7188 88.2812 37.4746 88.2812 31C88.2812 24.5254 93.5254 19.2812 100 19.2812C106.475 19.2812 111.719 24.5254 111.719 31C111.719 37.4746 106.475 42.7188 100 42.7188ZM103.621 36.6016L98.6465 32.9863C98.4648 32.8516 98.3594 32.6406 98.3594 32.418V22.7969C98.3594 22.4102 98.6758 22.0938 99.0625 22.0938H100.938C101.324 22.0938 101.641 22.4102 101.641 22.7969V31.0996L105.555 33.9473C105.871 34.1758 105.936 34.6152 105.707 34.9316L104.605 36.4492C104.377 36.7598 103.938 36.8301 103.621 36.6016Z" fill="#FF5A5F"/>
<path d="M148.271 30.0156L124.095 5.73439C123.543 5.18266 122.888 4.7455 122.168 4.4479C121.447 4.1503 120.676 3.9981 119.897 4.00002H118.39V31.75C118.39 32.8014 118.807 33.8097 119.548 34.5532C120.289 35.2966 121.294 35.7143 122.341 35.7143H150V34.2029C150 33.4253 149.847 32.6552 149.551 31.9368C149.254 31.2183 148.819 30.5655 148.271 30.0156ZM132.22 59.5H72.9512C71.9033 59.5 70.8983 59.9177 70.1573 60.6611C69.4163 61.4046 69 62.4129 69 63.4643V111.036C69 112.087 69.4163 113.095 70.1573 113.839C70.8983 114.582 71.9033 115 72.9512 115H132.22C133.267 115 134.272 114.582 135.013 113.839C135.754 113.095 136.171 112.087 136.171 111.036V63.4643C136.171 62.4129 135.754 61.4046 135.013 60.6611C134.272 59.9177 133.267 59.5 132.22 59.5ZM88.7561 107.071H76.9024V95.1786H88.7561V107.071ZM88.7561 87.25H76.9024V75.3571H88.7561V87.25ZM108.512 107.071H96.6585V95.1786H108.512V107.071ZM108.512 87.25H96.6585V75.3571H108.512V87.25ZM128.268 107.071H116.415V95.1786H128.268V107.071ZM128.268 87.25H116.415V75.3571H128.268V87.25Z" fill="#64DBDF"/>
<path d="M70.1949 52.9683C70.1065 53.0567 70.0476 53.1157 70.0476 53.2041C69.8119 53.5284 69.5763 53.7642 69.2523 54L47.8968 73.4246L47.7495 73.572L31.5782 88.2805C28.6032 91.0218 23.8902 90.786 21.2392 87.8089L4.09588 68.9738C1.35648 65.9967 1.59213 61.369 4.56717 58.6277L42.3001 24.4356C43.8319 22.9912 45.8643 22.4017 47.8084 22.5786C49.5757 22.726 51.3726 23.5513 52.6686 24.9366L69.6941 43.6539C69.8414 43.8013 70.0181 44.0666 70.1654 44.2139C72.0506 46.8078 72.0506 50.3744 70.1949 52.9683Z" fill="#B2B2B2" stroke="#4A374E" stroke-width="3.7614" stroke-miterlimit="10"/>
<path d="M33.4928 70.7422C33.4045 70.6538 33.3456 70.5948 33.2572 70.5064C33.2572 70.418 33.2572 70.2706 33.1688 70.1822C30.4294 65.4955 27.7489 60.8088 25.0095 56.1221C24.2142 54.6778 23.3011 53.204 22.5058 51.8481C24.8623 49.7553 27.1893 47.5741 29.5458 45.4518C29.6341 45.4518 29.693 45.4518 29.7814 45.3634C30.1938 45.1276 30.5178 44.8034 30.8418 44.5676C32.3735 43.5948 33.9936 43.4475 35.702 44.2433C35.2896 44.5676 34.9067 44.8034 34.4943 45.1276C32.2262 47.2204 29.9581 49.2542 27.6311 51.347C27.5428 51.4355 27.4838 51.4944 27.5428 51.6713C28.014 52.5555 28.6032 53.4398 29.0745 54.3536C30.1938 56.3874 31.4309 58.3034 32.5503 60.3372C32.5503 60.4256 32.6386 60.4256 32.6386 60.4846C33.699 62.2531 34.6711 63.9627 35.702 65.7313C36.1144 66.3798 36.4973 67.1167 36.8214 67.7651C35.7609 68.6494 34.6416 69.7106 33.4928 70.7422Z" fill="#38447C"/>
<path d="M43.1249 46.1593C43.9202 47.3678 44.421 48.6647 44.5093 50.1091C44.6566 51.7302 44.1853 53.1746 43.2133 54.4715C42.9776 54.7957 42.742 55.12 42.4769 55.3558C40.9452 56.8001 39.3251 58.2739 37.705 59.6298C37.6166 59.7182 37.6166 59.7182 37.5577 59.7772C37.8818 60.3372 38.2058 60.8973 38.5298 61.5457C39.6491 63.4027 40.7095 65.3481 41.8288 67.2051H41.9172C40.7979 68.2663 39.6491 69.239 38.5298 70.2706C38.4414 70.1822 38.3825 70.0348 38.2941 69.9464C37.8228 69.1506 37.4105 68.3252 36.9097 67.5883C36.4973 66.9399 36.1144 66.2029 35.7904 65.5545C34.73 63.7859 33.7579 62.0763 32.727 60.3078C32.727 60.2193 32.6386 60.2193 32.6386 60.1604C34.2587 58.7161 35.8788 57.1833 37.4988 55.7095C38.4709 54.8252 39.1189 53.6757 39.4429 52.4082C40.0026 49.9027 39.2956 47.7215 37.7345 45.7761C37.1748 45.0392 36.5268 44.5676 35.7904 44.0665C35.9377 43.9781 36.1144 43.9191 36.2617 43.7422C38.029 42.7695 39.8848 42.9464 41.5048 44.1549C41.4165 44.3023 42.3885 45.1276 43.1249 46.1593Z" fill="#5FCBFD"/>
<path d="M35.6726 44.155C35.6726 44.155 35.6726 44.214 35.6726 44.155C36.4679 44.6266 37.1159 45.1277 37.705 45.8646C39.1484 47.81 39.9731 49.9913 39.4135 52.4967C39.0895 53.7937 38.4414 54.9138 37.4694 55.798C35.8493 57.2424 34.2293 58.7751 32.6092 60.2489C31.4899 58.2151 30.2527 56.2991 29.1334 54.2653C28.6621 53.381 28.073 52.4967 27.6017 51.583C27.5133 51.4356 27.5133 51.3472 27.6901 51.2587C29.9582 49.1659 32.2263 47.1321 34.5533 45.0393C34.8773 44.8035 35.2897 44.4793 35.6726 44.155Z" fill="#212C62"/>
<g opacity="0.2">
<path opacity="0.2" d="M90.7256 109.002L51.9323 114.426V73.9847L85.2174 69.298C89.2528 68.738 92.9054 71.5677 93.465 75.5175L97.0292 100.572C97.5005 104.787 94.6727 108.501 90.7256 109.002Z" fill="black"/>
</g>
<path d="M87.7211 106.732L37.2926 113.777C33.2572 114.337 29.5458 111.508 28.9566 107.558L25.4808 82.5032C24.9212 78.465 27.7489 74.751 31.696 74.1615L82.1245 67.1168C86.16 66.5567 89.8714 69.3864 90.4605 73.3362L93.9363 98.3908C94.5843 102.458 91.7566 106.172 87.7211 106.732Z" fill="#CCCCCC" stroke="#4A374E" stroke-width="3.7614" stroke-miterlimit="10"/>
<path d="M75.8504 101.397L45.8643 105.612C44.6566 105.76 43.5962 104.964 43.4489 103.755C43.3016 102.547 44.0969 101.486 45.3046 101.338L75.2907 97.0938C76.4984 96.9464 77.5588 97.7423 77.7061 98.9508C77.8534 100.1 77.0581 101.22 75.8504 101.397Z" fill="#008489"/>
<path d="M85.8655 90.4027L75.7621 91.7881C75.0257 91.8765 74.3777 91.3754 74.3188 90.668L74.0831 88.9584C73.9947 88.2215 74.4955 87.573 75.2024 87.5141L85.3058 86.0992C86.0422 86.0108 86.6902 86.5119 86.7491 87.2193L86.9848 88.9289C87.0732 89.5774 86.6019 90.3143 85.8655 90.4027Z" fill="#008489"/>
<path d="M26.6881 91.1086L91.6858 82.0195L90.4098 72.8821L25.4121 81.9712L26.6881 91.1086Z" fill="#4A374E"/>
</g>
<defs>
<clipPath id="clip0_636_2126">
<rect width="154" height="135" fill="white"/>
</clipPath>
</defs>
</svg>
