<svg width="33" height="26" viewBox="0 0 33 26" fill="none" xmlns="http://www.w3.org/2000/svg">
<path d="M15.497 26C22.5904 26 28.3408 20.1797 28.3408 13C28.3408 5.8203 22.5904 0 15.497 0C8.40365 0 2.65332 5.8203 2.65332 13C2.65332 20.1797 8.40365 26 15.497 26Z" fill="#484848"/>
<path d="M14.7387 2.64274C14.8182 2.64274 14.8827 2.57749 14.8827 2.497C14.8827 2.41651 14.8182 2.35126 14.7387 2.35126C14.6592 2.35126 14.5947 2.41651 14.5947 2.497C14.5947 2.57749 14.6592 2.64274 14.7387 2.64274Z" fill="white"/>
<path d="M16.2172 2.83707C16.2968 2.83707 16.3612 2.77182 16.3612 2.69133C16.3612 2.61084 16.2968 2.54559 16.2172 2.54559C16.1377 2.54559 16.0732 2.61084 16.0732 2.69133C16.0732 2.77182 16.1377 2.83707 16.2172 2.83707Z" fill="white"/>
<path d="M18.1567 5.47983C18.2362 5.47983 18.3007 5.41458 18.3007 5.33409C18.3007 5.2536 18.2362 5.18835 18.1567 5.18835C18.0772 5.18835 18.0127 5.2536 18.0127 5.33409C18.0127 5.41458 18.0772 5.47983 18.1567 5.47983Z" fill="white"/>
<path d="M7.52045 19.0823C7.59997 19.0823 7.66444 19.017 7.66444 18.9365C7.66444 18.856 7.59997 18.7908 7.52045 18.7908C7.44093 18.7908 7.37646 18.856 7.37646 18.9365C7.37646 19.017 7.44093 19.0823 7.52045 19.0823Z" fill="white"/>
<path d="M7.89448 20.2481C7.974 20.2481 8.03846 20.1829 8.03846 20.1024C8.03846 20.0219 7.974 19.9567 7.89448 19.9567C7.81495 19.9567 7.75049 20.0219 7.75049 20.1024C7.75049 20.1829 7.81495 20.2481 7.89448 20.2481Z" fill="white"/>
<path d="M6.1093 19.2205C6.16885 19.2205 6.21713 19.1716 6.21713 19.1113C6.21713 19.0511 6.16885 19.0022 6.1093 19.0022C6.04974 19.0022 6.00146 19.0511 6.00146 19.1113C6.00146 19.1716 6.04974 19.2205 6.1093 19.2205Z" fill="white"/>
<path d="M11.9646 21.5112C12.0243 21.5112 12.0727 21.4622 12.0727 21.4017C12.0727 21.3412 12.0243 21.2922 11.9646 21.2922C11.9049 21.2922 11.8564 21.3412 11.8564 21.4017C11.8564 21.4622 11.9049 21.5112 11.9646 21.5112Z" fill="white"/>
<path d="M21.1484 19.58C21.2079 19.58 21.2562 19.5311 21.2562 19.4708C21.2562 19.4106 21.2079 19.3617 21.1484 19.3617C21.0888 19.3617 21.0405 19.4106 21.0405 19.4708C21.0405 19.5311 21.0888 19.58 21.1484 19.58Z" fill="white"/>
<path d="M23.8171 16.6461C23.8769 16.6461 23.9253 16.597 23.9253 16.5366C23.9253 16.4761 23.8769 16.4271 23.8171 16.4271C23.7574 16.4271 23.709 16.4761 23.709 16.5366C23.709 16.597 23.7574 16.6461 23.8171 16.6461Z" fill="white"/>
<path d="M10.7362 6.29568C10.7958 6.29568 10.8441 6.24681 10.8441 6.18654C10.8441 6.12626 10.7958 6.07739 10.7362 6.07739C10.6767 6.07739 10.6284 6.12626 10.6284 6.18654C10.6284 6.24681 10.6767 6.29568 10.7362 6.29568Z" fill="white"/>
<path d="M13.6733 4.11215C13.7328 4.11215 13.7811 4.06328 13.7811 4.003C13.7811 3.94272 13.7328 3.89386 13.6733 3.89386C13.6137 3.89386 13.5654 3.94272 13.5654 4.003C13.5654 4.06328 13.6137 4.11215 13.6733 4.11215Z" fill="white"/>
<path d="M13.3544 3.8984C13.414 3.8984 13.4622 3.84954 13.4622 3.78926C13.4622 3.72898 13.414 3.68011 13.3544 3.68011C13.2949 3.68011 13.2466 3.72898 13.2466 3.78926C13.2466 3.84954 13.2949 3.8984 13.3544 3.8984Z" fill="white"/>
<path d="M13.0668 3.68459C13.1264 3.68459 13.1746 3.63573 13.1746 3.57545C13.1746 3.51517 13.1264 3.46631 13.0668 3.46631C13.0073 3.46631 12.959 3.51517 12.959 3.57545C12.959 3.63573 13.0073 3.68459 13.0668 3.68459Z" fill="white"/>
<path d="M11.1967 6.85946C11.2563 6.85946 11.3045 6.8106 11.3045 6.75032C11.3045 6.69004 11.2563 6.64117 11.1967 6.64117C11.1371 6.64117 11.0889 6.69004 11.0889 6.75032C11.0889 6.8106 11.1371 6.85946 11.1967 6.85946Z" fill="white"/>
<path d="M15.5234 1.17794C15.5829 1.17794 15.6312 1.12908 15.6312 1.0688C15.6312 1.00852 15.5829 0.959656 15.5234 0.959656C15.4638 0.959656 15.4155 1.00852 15.4155 1.0688C15.4155 1.12908 15.4638 1.17794 15.5234 1.17794Z" fill="white"/>
<path d="M16.2343 4.32589C16.2938 4.32589 16.3421 4.27703 16.3421 4.21675C16.3421 4.15647 16.2938 4.1076 16.2343 4.1076C16.1747 4.1076 16.1265 4.15647 16.1265 4.21675C16.1265 4.27703 16.1747 4.32589 16.2343 4.32589Z" fill="white"/>
<path d="M15.1137 3.71114C15.1732 3.71114 15.2215 3.66228 15.2215 3.602C15.2215 3.54172 15.1732 3.49286 15.1137 3.49286C15.0541 3.49286 15.0059 3.54172 15.0059 3.602C15.0059 3.66228 15.0541 3.71114 15.1137 3.71114Z" fill="white"/>
<path d="M13.1933 4.54714C13.2528 4.54714 13.3011 4.49828 13.3011 4.438C13.3011 4.37772 13.2528 4.32886 13.1933 4.32886C13.1337 4.32886 13.0854 4.37772 13.0854 4.438C13.0854 4.49828 13.1337 4.54714 13.1933 4.54714Z" fill="white"/>
<path d="M21.6601 22.4634C21.7196 22.4634 21.7679 22.4145 21.7679 22.3543C21.7679 22.294 21.7196 22.2451 21.6601 22.2451C21.6005 22.2451 21.5522 22.294 21.5522 22.3543C21.5522 22.4145 21.6005 22.4634 21.6601 22.4634Z" fill="white"/>
<path d="M7.33764 19.7844C7.39737 19.7844 7.44579 19.7354 7.44579 19.6749C7.44579 19.6144 7.39737 19.5654 7.33764 19.5654C7.27791 19.5654 7.22949 19.6144 7.22949 19.6749C7.22949 19.7354 7.27791 19.7844 7.33764 19.7844Z" fill="white"/>
<path d="M14.844 21.1932C14.9037 21.1932 14.9521 21.1442 14.9521 21.0837C14.9521 21.0233 14.9037 20.9742 14.844 20.9742C14.7843 20.9742 14.7358 21.0233 14.7358 21.0837C14.7358 21.1442 14.7843 21.1932 14.844 21.1932Z" fill="white"/>
<path d="M9.57202 19.6969C9.63175 19.6969 9.68017 19.6479 9.68017 19.5874C9.68017 19.527 9.63175 19.478 9.57202 19.478C9.51229 19.478 9.46387 19.527 9.46387 19.5874C9.46387 19.6479 9.51229 19.6969 9.57202 19.6969Z" fill="white"/>
<path d="M10.5056 21.2395C10.5653 21.2395 10.6138 21.1905 10.6138 21.13C10.6138 21.0696 10.5653 21.0206 10.5056 21.0206C10.4459 21.0206 10.3975 21.0696 10.3975 21.13C10.3975 21.1905 10.4459 21.2395 10.5056 21.2395Z" fill="white"/>
<path d="M17.3788 20.2675C17.4384 20.2675 17.4867 20.2187 17.4867 20.1584C17.4867 20.0981 17.4384 20.0493 17.3788 20.0493C17.3193 20.0493 17.271 20.0981 17.271 20.1584C17.271 20.2187 17.3193 20.2675 17.3788 20.2675Z" fill="white"/>
<path d="M21.1679 18.1032C21.2274 18.1032 21.2757 18.0543 21.2757 17.994C21.2757 17.9338 21.2274 17.8849 21.1679 17.8849C21.1083 17.8849 21.0601 17.9338 21.0601 17.994C21.0601 18.0543 21.1083 18.1032 21.1679 18.1032Z" fill="white"/>
<path d="M24.0404 19.4317C24.1 19.4317 24.1483 19.3828 24.1483 19.3225C24.1483 19.2622 24.1 19.2134 24.0404 19.2134C23.9809 19.2134 23.9326 19.2622 23.9326 19.3225C23.9326 19.3828 23.9809 19.4317 24.0404 19.4317Z" fill="white"/>
<path d="M25.0199 20.0658C25.0795 20.0658 25.1278 20.017 25.1278 19.9567C25.1278 19.8964 25.0795 19.8475 25.0199 19.8475C24.9604 19.8475 24.9121 19.8964 24.9121 19.9567C24.9121 20.017 24.9604 20.0658 25.0199 20.0658Z" fill="white"/>
<path d="M25.1806 18.3364C25.2401 18.3364 25.2884 18.2875 25.2884 18.2272C25.2884 18.167 25.2401 18.1181 25.1806 18.1181C25.121 18.1181 25.0728 18.167 25.0728 18.2272C25.0728 18.2875 25.121 18.3364 25.1806 18.3364Z" fill="white"/>
<path d="M10.8969 15.8879C10.9564 15.8879 11.0047 15.839 11.0047 15.7788C11.0047 15.7185 10.9564 15.6696 10.8969 15.6696C10.8373 15.6696 10.7891 15.7185 10.7891 15.7788C10.7891 15.839 10.8373 15.8879 10.8969 15.8879Z" fill="white"/>
<path d="M10.9379 18.4313C11.0175 18.4313 11.0819 18.366 11.0819 18.2855C11.0819 18.205 11.0175 18.1398 10.9379 18.1398C10.8584 18.1398 10.7939 18.205 10.7939 18.2855C10.7939 18.366 10.8584 18.4313 10.9379 18.4313Z" fill="white"/>
<path d="M11.8012 20.2773C11.8807 20.2773 11.9452 20.212 11.9452 20.1315C11.9452 20.051 11.8807 19.9858 11.8012 19.9858C11.7217 19.9858 11.6572 20.051 11.6572 20.1315C11.6572 20.212 11.7217 20.2773 11.8012 20.2773Z" fill="white"/>
<path d="M22.1489 18.3535C22.2284 18.3535 22.2929 18.2882 22.2929 18.2078C22.2929 18.1273 22.2284 18.062 22.1489 18.062C22.0693 18.062 22.0049 18.1273 22.0049 18.2078C22.0049 18.2882 22.0693 18.3535 22.1489 18.3535Z" fill="white"/>
<path d="M25.8735 18.1397C25.953 18.1397 26.0175 18.0745 26.0175 17.994C26.0175 17.9135 25.953 17.8483 25.8735 17.8483C25.794 17.8483 25.7295 17.9135 25.7295 17.994C25.7295 18.0745 25.794 18.1397 25.8735 18.1397Z" fill="white"/>
<path d="M24.0307 17.3431C24.1102 17.3431 24.1747 17.2778 24.1747 17.1973C24.1747 17.1168 24.1102 17.0516 24.0307 17.0516C23.9512 17.0516 23.8867 17.1168 23.8867 17.1973C23.8867 17.2778 23.9512 17.3431 24.0307 17.3431Z" fill="white"/>
<path d="M22.1489 17.4208C22.2284 17.4208 22.2929 17.3556 22.2929 17.2751C22.2929 17.1946 22.2284 17.1293 22.1489 17.1293C22.0693 17.1293 22.0049 17.1946 22.0049 17.2751C22.0049 17.3556 22.0693 17.4208 22.1489 17.4208Z" fill="white"/>
<path d="M18.268 2.40568L18.6261 2.37103L18.2687 2.35062C18.2575 2.28067 18.2021 2.22593 18.1323 2.21687L18.0981 1.85608L18.0776 2.21978C18.013 2.23436 17.9634 2.28909 17.9554 2.3571L17.5894 2.39078L17.958 2.41086C17.9714 2.47337 18.0213 2.52227 18.084 2.53393L18.1173 2.90573L18.1368 2.53458C18.2031 2.52324 18.2555 2.47175 18.268 2.40568Z" fill="white"/>
<path d="M12.226 6.44041L12.5841 6.40576L12.2267 6.38535C12.2158 6.3154 12.1601 6.26066 12.0904 6.2516L12.0561 5.89081L12.036 6.25451C11.971 6.26908 11.9214 6.32382 11.9134 6.39183L11.5474 6.42551L11.916 6.44559C11.9294 6.5081 11.9793 6.557 12.042 6.56866L12.0753 6.94046L12.0952 6.56931C12.1614 6.5583 12.2139 6.50648 12.226 6.44041Z" fill="white"/>
<path d="M25.6114 17.108L25.9695 17.0733L25.6121 17.0529C25.6012 16.9829 25.5455 16.9282 25.4758 16.9191L25.4415 16.5583L25.4214 16.9221C25.3568 16.9366 25.3072 16.9914 25.2992 17.0594L24.9331 17.0931L25.3017 17.1131C25.3152 17.1756 25.3651 17.2245 25.4278 17.2362L25.4611 17.608L25.4809 17.2369C25.5465 17.2258 25.599 17.1743 25.6114 17.108Z" fill="white"/>
<path d="M11.0161 22.6855L11.3741 22.6509L11.0167 22.6305C11.0055 22.5605 10.9502 22.5058 10.8804 22.4967L10.8462 22.1362L10.826 22.4996C10.761 22.5142 10.7115 22.5689 10.7035 22.6369L10.3374 22.6706L10.706 22.6907C10.7195 22.7532 10.7694 22.8024 10.8321 22.8138L10.8654 23.1856L10.8852 22.8144C10.9511 22.8034 11.0039 22.7516 11.0161 22.6855Z" fill="white"/>
<path d="M24.4742 19.9651L24.8323 19.9304L24.4749 19.91C24.464 19.8401 24.4083 19.7853 24.3386 19.7763L24.3043 19.4155L24.2842 19.7788C24.2195 19.7934 24.1699 19.8482 24.1619 19.9162L23.7959 19.9498L24.1645 19.9699C24.1779 20.0324 24.2279 20.0813 24.2906 20.093L24.3239 20.4648L24.3437 20.0936C24.4093 20.083 24.4621 20.0311 24.4742 19.9651Z" fill="white"/>
<path d="M18.5432 9.88605C17.0499 10.4735 15.5933 10.9979 14.3643 11.3872C11.8669 12.1787 5.0339 14.3214 0.90625 17.0224L1.25182 17.1585C3.76681 15.7205 5.40155 15.2687 6.97294 14.7683C8.6816 14.2242 14.2053 12.9158 16.7065 12.2033C17.5516 11.9627 18.5412 11.6476 19.5895 11.2641C19.3457 10.9198 19.0884 10.5746 18.8177 10.23C18.7271 10.1137 18.6353 9.99908 18.5432 9.88605ZM20.3677 12.4313C20.0061 12.6784 19.7031 12.8757 19.4909 13C18.2622 13.719 12.272 17.858 10.9092 18.8102C9.54648 19.7624 5.76408 23.3767 4.65057 24.426L4.61218 24.8532C8.20228 21.5886 9.32858 20.7835 10.7557 19.6846C12.5219 18.3244 16.1757 15.8079 17.4175 15.0015C18.6046 14.2307 19.6752 13.5218 20.6361 12.8731C20.6204 12.8465 20.6048 12.82 20.5891 12.7931C20.5168 12.6729 20.4428 12.5524 20.3677 12.4313ZM25.9797 6.43201C24.2307 7.46968 21.4741 8.72207 18.7998 9.78468C18.8638 9.86402 18.9275 9.94402 18.9908 10.0247C19.2897 10.4055 19.5716 10.789 19.8368 11.1728C21.939 10.389 24.2457 9.33709 26.076 8.06398C25.204 8.9002 22.3214 11.0808 20.5638 12.2963C20.6544 12.4456 20.742 12.5949 20.8268 12.7435C23.4896 10.9399 25.2815 9.61238 26.3256 8.72466C27.7654 7.50045 31.0484 4.76054 32.2963 1.08789C30.1073 3.90585 27.5194 5.51838 25.9797 6.43201Z" fill="#747474"/>
<path d="M13.8445 16.2189C13.5614 15.8581 13.1697 15.3749 12.8757 15.0002C12.4824 14.4992 12.1186 13.993 11.7852 13.4874C11.6764 13.5149 11.5679 13.5425 11.4595 13.57C11.862 14.2058 12.309 14.8405 12.796 15.4611C13.1518 15.9145 13.4753 16.2795 13.641 16.5065C13.6746 16.5525 13.7412 16.6542 13.8311 16.7896C13.9348 16.7183 14.0394 16.6464 14.145 16.5739C14.0429 16.4615 13.9421 16.3433 13.8445 16.2189ZM15.9116 18.1181C15.6789 17.8952 15.1148 17.5231 14.5277 16.9648C14.3981 17.0548 14.2672 17.1461 14.136 17.2381C14.5152 17.779 15.0316 18.4432 15.4361 18.6369C16.0453 18.929 16.2095 18.4037 15.9116 18.1181ZM18.9907 10.0246C15.6335 5.74766 11.5324 3.39801 9.76424 4.8201C8.39091 5.92449 8.95471 9.15214 10.8477 12.5427C10.9456 12.5087 11.0425 12.4753 11.1385 12.4423C9.22796 9.13886 8.70513 6.06893 10.0004 5.02705C11.6281 3.71799 15.5583 6.0767 18.8182 10.2296C19.493 11.0892 20.0863 11.952 20.5886 12.793C22.5123 16.0155 23.1026 18.9297 21.7735 20.1192C21.3668 20.4833 20.124 20.6261 18.496 19.8844C18.4733 19.9133 18.5097 19.9913 18.5382 20.0104C19.9435 20.5824 21.2897 20.8003 21.9693 20.254C23.6024 18.9404 22.3478 14.3016 18.9907 10.0246Z" fill="white"/>
<path d="M4.59229 10.5322H6.7425L8.54715 13.6316C8.54715 13.6316 8.54715 11.3872 8.54715 11.2123C8.54715 10.9402 8.20638 10.5856 8.08639 10.5322C8.23038 10.5322 9.48787 10.5322 9.57427 10.5322C9.48307 10.5565 9.1903 10.9159 9.1903 11.2123C9.1903 11.358 9.1903 14.6129 9.1903 14.7683C9.1903 14.9869 9.50227 15.2881 9.65106 15.4047H7.57763L5.74419 12.2908C5.74419 12.2908 5.74419 14.6129 5.74419 14.7392C5.74419 14.9821 5.97937 15.2153 6.22415 15.4145H4.64028C4.86586 15.3173 5.08184 15.0112 5.10104 14.7683C5.12024 14.5254 5.10104 11.392 5.10104 11.256C5.10104 10.9597 4.81787 10.7168 4.59229 10.5322Z" fill="white"/>
<path d="M24.2614 15.4047H27.1219C26.9635 15.3659 26.786 15.1764 26.69 14.9238C26.594 14.6712 25.0773 10.5322 25.0773 10.5322H23.9897C23.6813 10.7569 23.3507 10.994 22.9978 11.2437C22.9968 11.2528 22.9959 11.2618 22.9943 11.2706C22.9469 11.5621 22.0958 14.6822 22.044 14.8363C21.972 15.0501 21.6024 15.2881 21.4536 15.4145H22.9943C22.8407 15.2396 22.7159 15.0695 22.7447 14.8752C22.7735 14.6809 22.8599 14.2923 22.8599 14.2923H24.4534C24.5254 14.4866 24.5791 14.6611 24.6069 14.8266C24.6405 15.0258 24.439 15.2493 24.2614 15.4047ZM23.0039 13.6704L23.5414 11.8924L24.2518 13.6704H23.0039ZM22.7617 10.7096C22.8407 10.6507 22.9201 10.5914 22.9991 10.5322H22.5815C22.6231 10.571 22.6919 10.6322 22.7617 10.7096Z" fill="white"/>
<path d="M11.8204 14.8752C11.8492 14.6809 11.9356 14.2923 11.9356 14.2923H13.529C13.601 14.4866 13.6548 14.6611 13.6826 14.8266C13.7162 15.0258 13.5146 15.2493 13.3371 15.4047H15.8556C15.908 15.3691 15.9602 15.3335 16.0124 15.2982C15.9148 15.2107 15.8249 15.0796 15.7657 14.9238C15.6697 14.6712 14.153 10.5322 14.153 10.5322H11.6572C11.7772 10.6439 12.1228 10.9451 12.07 11.2706C12.0229 11.5621 11.1715 14.6822 11.1196 14.8363C11.0477 15.0501 10.6781 15.2881 10.5293 15.4145H12.07C11.9164 15.2396 11.7916 15.0695 11.8204 14.8752ZM12.6171 11.8924L13.3275 13.6704H12.0796L12.6171 11.8924Z" fill="white"/>
<path d="M20.5205 12.9508C20.0508 13.2675 19.5552 13.5982 19.033 13.9434C19.2672 14.0584 19.4537 14.2028 19.4717 14.3894C19.5049 14.7398 18.8093 14.9092 18.1806 14.8363C18.0548 14.8218 17.9313 14.7884 17.8136 14.7437C17.683 14.8289 17.5512 14.9147 17.4174 15.0015C17.2814 15.0899 17.1163 15.1987 16.9279 15.3244V15.8274C17.0527 15.5796 17.3256 15.3578 17.5374 15.3464C17.6286 15.3416 17.9454 15.6379 19.2509 15.565C19.8844 15.5297 21.1083 14.846 21.0891 14.059C21.0776 13.594 20.8376 13.2312 20.5205 12.9508ZM16.9276 14.1659V14.6783C17.0431 14.6002 17.157 14.5235 17.2686 14.4487C17.093 14.3249 16.9685 14.2093 16.9276 14.1659ZM20.0742 12.6292C19.9526 12.5563 19.8294 12.4925 19.7113 12.4362C19.097 12.1447 18.4538 12.0912 18.3194 11.6977C18.2247 11.4202 18.4922 11.1634 19.145 11.1731C19.7977 11.1828 20.4025 11.5763 20.5656 11.7172V10.4638C20.5177 10.5124 20.3071 10.7569 20.1145 10.7164C19.7449 10.6387 19.1162 10.5373 18.3962 10.5415C17.5707 10.5464 16.8604 11.1922 16.8364 12.0086C16.8028 13.1503 17.7051 13.4612 18.2138 13.6409C18.2663 13.6594 18.3262 13.6792 18.3911 13.7002C18.8791 13.3789 19.265 13.1315 19.4909 12.9997C19.6425 12.9113 19.8412 12.7843 20.0742 12.6292Z" fill="white"/>
</svg>
