<svg width="23" height="21" viewBox="0 0 23 21" fill="none" xmlns="http://www.w3.org/2000/svg">
<path fill-rule="evenodd" clip-rule="evenodd" d="M17.7612 3.22498V1.44529C17.7612 1.11348 17.4837 0.849976 17.1529 0.849976H5.84732C5.5165 0.849976 5.23899 1.11348 5.23899 1.44529V3.22498H0.958431C0.627609 3.22498 0.350098 3.48848 0.350098 3.82029V6.10623C0.350098 7.31297 1.02856 8.5968 2.14022 9.63723C3.23841 10.665 4.77214 11.4685 6.53898 11.7391C7.64825 13.9184 9.29377 15.031 10.739 15.3227V18.6625H7.60426C6.97477 18.6625 6.46121 19.1605 6.46121 19.781C6.46121 19.9936 6.63895 20.15 6.84038 20.15H16.1598C16.3612 20.15 16.539 19.9936 16.539 19.781C16.539 19.1605 16.0254 18.6625 15.3959 18.6625H12.2612V15.3227C13.7099 15.0311 15.352 13.9184 16.4612 11.7391C18.23 11.4685 19.7637 10.6641 20.8615 9.63579C21.9726 8.5949 22.6501 7.31108 22.6501 6.10623V3.82029C22.6501 3.48848 22.3726 3.22498 22.0418 3.22498H17.7612ZM17.1851 1.00107C17.4223 1.01725 17.6112 1.21087 17.6112 1.44529V3.37498L17.6111 3.37497V1.44528C17.6111 1.2109 17.4222 1.0173 17.1851 1.00107ZM22.1338 3.38406C22.3421 3.4258 22.5 3.60601 22.5 3.82028V6.10622C22.5 8.407 19.9028 11.0937 16.3622 11.6021C15.2392 13.8547 13.551 14.9531 12.1111 15.198V18.8125L12.1112 18.8125V15.198C13.5511 14.9531 15.2393 13.8547 16.3622 11.6021C19.9029 11.0937 22.5001 8.40701 22.5001 6.10623V3.82029C22.5001 3.60598 22.3422 3.42577 22.1338 3.38406ZM15.5965 18.8322C16.0497 18.9226 16.3889 19.3135 16.3889 19.781C16.3889 19.9035 16.2858 20 16.1597 20H6.84028C6.84027 20 6.84027 20 6.84026 20C6.8403 20 6.84034 20 6.84038 20H16.1598C16.2859 20 16.389 19.9035 16.389 19.781C16.389 19.3135 16.0498 18.9226 15.5965 18.8322ZM1.87232 6.10623V4.71248H5.23899V5.4531C5.23899 7.26221 5.4741 8.79167 5.86809 10.0675C4.70219 9.72611 3.72807 9.10938 3.03311 8.40595C2.28282 7.64654 1.87232 6.80185 1.87232 6.10623ZM6.09548 10.2847C6.03739 10.2702 5.97972 10.2549 5.92249 10.239C3.39852 9.53842 1.72232 7.57219 1.72232 6.10623V4.56248H5.38889V4.56247H1.72222V6.10622C1.72222 7.60544 3.47535 9.6279 6.09549 10.2847C6.09548 10.2847 6.09548 10.2847 6.09548 10.2847ZM16.239 5.4531C16.239 7.80759 15.7086 9.93347 14.8451 11.4654C13.9796 13.001 12.7979 13.9125 11.5001 13.9125C10.2023 13.9125 9.02061 13.001 8.15508 11.4654C7.29164 9.93347 6.76121 7.80759 6.76121 5.4531V2.33748H16.239V5.4531ZM21.1279 6.10623C21.1279 6.80175 20.7165 7.64643 19.9657 8.40592C19.2703 9.1093 18.2963 9.72597 17.1321 10.0674C17.5261 8.79157 17.7612 7.26215 17.7612 5.4531V4.71248H21.1279V6.10623ZM16.9046 10.2847C16.9234 10.2288 16.9418 10.1725 16.9599 10.1155C17.3662 8.83776 17.6112 7.29338 17.6112 5.4531V4.56248L21.2778 4.56247H17.6111V5.45309C17.6111 7.37536 17.3438 8.97477 16.9045 10.2847C16.9046 10.2847 16.9046 10.2847 16.9046 10.2847ZM11.107 14.0359C8.54893 13.6885 6.61121 9.97421 6.61121 5.4531V2.18748L16.3889 2.18747H6.61111V5.45309C6.61111 9.97426 8.54888 13.6885 11.107 14.0359Z" fill="#008489"/>
</svg>
