<svg width="25" height="24" viewBox="0 0 25 24" fill="none" xmlns="http://www.w3.org/2000/svg">
<path d="M21.6406 3.51562C21.6406 1.57711 20.0635 0 18.125 0H6.875C4.93648 0 3.35938 1.57711 3.35938 3.51562C3.35938 5.21339 4.56912 6.63384 6.17188 6.96052V7.73438C6.17188 8.65102 6.75973 9.43256 7.57812 9.72281V22.5938H6.875C6.48669 22.5938 6.17188 22.9086 6.17188 23.2969C6.17188 23.6852 6.48669 24 6.875 24H18.125C18.5133 24 18.8281 23.6852 18.8281 23.2969C18.8281 22.9086 18.5133 22.5938 18.125 22.5938H17.4219V9.72281C18.2403 9.43256 18.8281 8.65102 18.8281 7.73438V6.96052C20.4309 6.63384 21.6406 5.21339 21.6406 3.51562ZM8.98438 22.5938V9.84375H16.0156V22.5938H8.98438ZM17.4219 7.73438C17.4219 8.12208 17.1065 8.4375 16.7188 8.4375H8.28125C7.89355 8.4375 7.57812 8.12208 7.57812 7.73438V7.03125H17.4219V7.73438ZM18.125 5.625C17.7373 5.625 17.4219 5.30958 17.4219 4.92188C17.4219 4.53417 17.7373 4.21875 18.125 4.21875C18.5133 4.21875 18.8281 3.90394 18.8281 3.51562C18.8281 3.12731 18.5133 2.8125 18.125 2.8125C16.9619 2.8125 16.0156 3.75877 16.0156 4.92188C16.0156 5.16834 16.0585 5.40492 16.1366 5.625H8.86344C8.94148 5.40492 8.98438 5.16834 8.98438 4.92188C8.98438 3.75877 8.03811 2.8125 6.875 2.8125C6.48669 2.8125 6.17188 3.12731 6.17188 3.51562C6.17188 3.90394 6.48669 4.21875 6.875 4.21875C7.2627 4.21875 7.57812 4.53417 7.57812 4.92188C7.57812 5.30958 7.2627 5.625 6.875 5.625C5.71189 5.625 4.76562 4.67873 4.76562 3.51562C4.76562 2.35252 5.71189 1.40625 6.875 1.40625H18.125C19.2881 1.40625 20.2344 2.35252 20.2344 3.51562C20.2344 4.67873 19.2881 5.625 18.125 5.625Z" fill="#008489"/>
<path d="M11.0938 11.25C10.7054 11.25 10.3906 11.5648 10.3906 11.9531V20.4844C10.3906 20.8727 10.7054 21.1875 11.0938 21.1875C11.4821 21.1875 11.7969 20.8727 11.7969 20.4844V11.9531C11.7969 11.5648 11.4821 11.25 11.0938 11.25Z" fill="#008489"/>
<path d="M13.9062 11.25C13.5179 11.25 13.2031 11.5648 13.2031 11.9531V20.4844C13.2031 20.8727 13.5179 21.1875 13.9062 21.1875C14.2946 21.1875 14.6094 20.8727 14.6094 20.4844V11.9531C14.6094 11.5648 14.2946 11.25 13.9062 11.25Z" fill="#008489"/>
</svg>
