<svg width="25" height="24" viewBox="0 0 25 24" fill="none" xmlns="http://www.w3.org/2000/svg">
<path d="M18.8324 10.1168V3.27108L12.4999 0L6.16749 3.27108V10.1168L0.541275 13.023V20.7289L6.87367 24L12.4999 21.0937L18.1262 24L24.4586 20.7289V13.023L18.8324 10.1168ZM6.16749 22.0455L1.95371 19.8688V14.6128L6.16749 16.7895V22.0455ZM2.78626 13.4531L6.87367 11.3417L10.9612 13.4531L6.87371 15.5647L2.78626 13.4531ZM11.7937 19.8688L7.57988 22.0455V16.7895L11.7937 14.6128V19.8688ZM11.7937 12.2935L7.57988 10.1168V4.8608L11.7937 7.03753V12.2935ZM12.4999 5.81259L8.41238 3.70111L12.4999 1.58962L16.5874 3.70111L12.4999 5.81259ZM17.42 4.8608V10.1168L13.2062 12.2934V7.03753L17.42 4.8608ZM17.4199 22.0455L13.2062 19.8688V14.6128L17.4199 16.7895V22.0455ZM14.0387 13.4531L18.1262 11.3417L22.2136 13.4531L18.1261 15.5647L14.0387 13.4531ZM23.0462 19.8688L18.8324 22.0455V16.7895L23.0462 14.6128V19.8688Z" fill="#008489"/>
</svg>
