<svg width="25" height="24" viewBox="0 0 25 24" fill="none" xmlns="http://www.w3.org/2000/svg">
<path d="M17.1211 7.15811C17.117 7.1552 17.113 7.15216 17.1088 7.14934L12.89 4.33684C12.6539 4.17939 12.3462 4.17939 12.11 4.33684L7.89125 7.14934C7.69766 7.2783 7.57812 7.50184 7.57812 7.73439V11.9531C7.57812 12.1882 7.69559 12.4078 7.89125 12.5382L12.11 15.3507C12.3396 15.5038 12.6441 15.51 12.8826 15.3552C12.8851 15.3537 12.8876 15.3523 12.89 15.3507L17.1088 12.5382C17.3044 12.4078 17.4219 12.1883 17.4219 11.9531V7.73439C17.4219 7.51206 17.3153 7.29367 17.1211 7.15811ZM11.7969 13.4518L8.98438 11.5768V9.04821L11.7969 10.9232V13.4518ZM12.5 9.70183L9.54884 7.73439L12.5 5.76695L15.4512 7.73439L12.5 9.70183ZM16.0156 11.5768L13.2031 13.4518V10.9232L16.0156 9.04821V11.5768Z" fill="#008489"/>
<path d="M18.125 19.7812H6.875C6.48669 19.7812 6.17188 20.0961 6.17188 20.4844C6.17188 20.8727 6.48669 21.1875 6.875 21.1875H18.125C18.5133 21.1875 18.8281 20.8727 18.8281 20.4844C18.8281 20.0961 18.5133 19.7812 18.125 19.7812Z" fill="#008489"/>
<path d="M18.125 16.9688H6.875C6.48669 16.9688 6.17188 17.2836 6.17188 17.6719C6.17188 18.0602 6.48669 18.375 6.875 18.375H18.125C18.5133 18.375 18.8281 18.0602 18.8281 17.6719C18.8281 17.2836 18.5133 16.9688 18.125 16.9688Z" fill="#008489"/>
<path d="M22.3437 4.91981C22.3431 4.73953 22.2709 4.5578 22.1378 4.42472L17.9191 0.205969C17.9191 0.205969 17.919 0.205922 17.919 0.205875C17.7909 0.0779063 17.6111 0 17.4217 0H4.76562C3.60252 0 2.65625 0.946266 2.65625 2.10938V21.8909C2.65625 23.0538 3.60252 24 4.76562 24H20.2344C21.3975 24 22.3438 23.0538 22.3438 21.8909V4.92188C22.3438 4.92117 22.3437 4.92052 22.3437 4.91981ZM18.125 2.40061L19.9431 4.21875H18.125V2.40061ZM20.9375 21.8909C20.9375 22.2784 20.6221 22.5938 20.2344 22.5938H4.76562C4.37792 22.5938 4.0625 22.2784 4.0625 21.8909V2.10938C4.0625 1.72167 4.37792 1.40625 4.76562 1.40625H16.7188V4.92188C16.7188 5.31019 17.0336 5.625 17.4219 5.625H20.9375V21.8909Z" fill="#008489"/>
</svg>
