<svg width="25" height="24" viewBox="0 0 25 24" fill="none" xmlns="http://www.w3.org/2000/svg">
<g clip-path="url(#clip0_1024_1127)">
<path d="M15.1132 7.56947H16.2731V3.00994H24.5V1.60369H16.273V0.0234375H8.72698V1.60369H0.5V3.00994H8.72698V7.56947H9.88686L10.6641 9.86522H11.7969V11.9631L5.1163 16.0808L4.24259 19.6097H2.49791V23.9766H22.5021V19.6097H20.7574L19.8837 16.0808L13.2031 11.9631V9.86517H14.3359V9.86522L15.1132 7.56947ZM10.631 14.3337L9.82414 15.8255H8.21056L10.631 14.3337ZM6.28006 17.2318H9.47975L9.28348 19.6097H5.69131L6.28006 17.2318ZM21.0958 21.016V22.5703H3.90416V21.016H21.0958ZM19.3087 19.6097H15.7165L15.5203 17.2318H18.7199L19.3087 19.6097ZM16.7895 15.8255H15.1759L14.3691 14.3337L16.7895 15.8255ZM14.3055 19.6097H10.6946L10.8908 17.2318H14.1093L14.3055 19.6097ZM13.5771 15.8255H11.4229L12.5 13.8338L13.5771 15.8255ZM13.3273 8.45897H11.6727L11.3715 7.56947H13.6285L13.3273 8.45897ZM10.1332 6.16322V1.42969H14.8667V6.16322H10.1332Z" fill="#008489"/>
</g>
<defs>
<clipPath id="clip0_1024_1127">
<rect width="24" height="24" fill="white" transform="translate(0.5)"/>
</clipPath>
</defs>
</svg>
