<svg width="25" height="24" viewBox="0 0 25 24" fill="none" xmlns="http://www.w3.org/2000/svg">
<g clip-path="url(#clip0_1024_1145)">
<path d="M22.3177 6.14563H20.1353V8.03146H4.86462V6.14563H2.68231C1.47898 6.14563 0.5 7.12461 0.5 8.32794V21.8177C0.5 23.0211 1.47898 24 2.68231 24H22.3177C23.521 24 24.5 23.0211 24.5 21.8177V8.32794C24.5 7.12461 23.521 6.14563 22.3177 6.14563ZM21.5416 7.55188H22.3177C22.7456 7.55188 23.0938 7.90002 23.0938 8.32794V19.778C22.8525 19.6858 22.5909 19.6354 22.3177 19.6354H21.5416V7.55188ZM1.90625 8.32794C1.90625 7.90002 2.25439 7.55188 2.68231 7.55188H3.45842V19.6354H2.68231C2.40912 19.6354 2.14752 19.6858 1.90625 19.778V8.32794ZM22.3177 22.5938H2.68231C2.25439 22.5938 1.90625 22.2456 1.90625 21.8177C1.90625 21.3898 2.25439 21.0417 2.68231 21.0417H4.86467V9.43771H20.1354V21.0417H22.3177C22.7457 21.0417 23.0938 21.3898 23.0938 21.8177C23.0938 22.2456 22.7456 22.5938 22.3177 22.5938Z" fill="#008489"/>
<path d="M12.5 11.5057L8.49127 13.5765V18.455L12.5 20.5257L16.5088 18.455V13.5765L12.5 11.5057ZM11.7969 18.5797L9.89752 17.5985V15.1593L11.7969 16.1405V18.5797ZM10.7265 14.0047L12.5 13.0885L14.2736 14.0047L12.5 14.9209L10.7265 14.0047ZM15.1025 17.5985L13.2032 18.5797V16.1405L15.1025 15.1593V17.5985Z" fill="#008489"/>
<path d="M20.0758 0H6.65122C5.33229 0 4.25928 1.07306 4.25928 2.39198C4.25928 3.71091 5.33229 4.78397 6.65122 4.78397H20.0758L22.003 2.39198L20.0758 0ZM7.36245 3.37772H6.65122C6.1077 3.37772 5.66553 2.9355 5.66553 2.39198C5.66553 1.84847 6.1077 1.40625 6.65122 1.40625H7.36245V3.37772ZM19.4029 3.37772H8.7687V1.40625H19.4029L20.1971 2.39198L19.4029 3.37772Z" fill="#008489"/>
</g>
<defs>
<clipPath id="clip0_1024_1145">
<rect width="24" height="24" fill="white" transform="translate(0.5)"/>
</clipPath>
</defs>
</svg>
