<svg width="25" height="24" viewBox="0 0 25 24" fill="none" xmlns="http://www.w3.org/2000/svg">
<g clip-path="url(#clip0_1024_1196)">
<path d="M16.3438 8.69556L14.6102 11.2983L12.8765 8.69556H1.5894L4.3096 12.7794V24.0001H20.6903V12.7794L23.4106 8.69556H16.3438ZM4.21581 10.1018H12.1235L13.2969 11.8635H5.38923L4.21581 10.1018ZM13.907 22.5939H5.71585V13.2698H13.907V22.5939ZM19.2841 22.5939H15.3133V13.2698H19.2841V22.5939ZM19.6107 11.8635H15.9233L17.0967 10.1018H20.7841L19.6107 11.8635Z" fill="#008489"/>
<path d="M15.9046 3.72783L15.3133 4.3192V0H13.9071V4.31916L13.3157 3.72783L12.3214 4.72219L14.6102 7.011L16.899 4.72219L15.9046 3.72783Z" fill="#008489"/>
</g>
<defs>
<clipPath id="clip0_1024_1196">
<rect width="24" height="24" fill="white" transform="translate(0.5)"/>
</clipPath>
</defs>
</svg>
