<svg width="165" height="37" viewBox="0 0 165 37" fill="none" xmlns="http://www.w3.org/2000/svg">
<g clip-path="url(#clip0_1344_7720)">
<path d="M18.5599 24.6221C21.8593 24.6221 24.5342 21.9461 24.5342 18.6478C24.5342 15.349 21.8593 12.6735 18.5599 12.6735C15.2622 12.6735 12.5868 15.349 12.5868 18.6478C12.5868 21.9461 15.2622 24.6221 18.5599 24.6221ZM18.5599 30.2633C24.9136 30.2633 30.0639 25.1118 30.0639 18.7581C30.0639 12.405 24.9136 7.25525 18.5599 7.25525C12.2073 7.25525 7.05648 12.405 7.05648 18.7581C7.05591 25.1118 12.2073 30.2633 18.5599 30.2633ZM1.23877 18.7581C1.23877 9.1924 8.99363 1.43811 18.5599 1.43811C28.1256 1.43811 35.8816 9.1924 35.8816 18.7581C35.8816 28.325 28.1256 36.0793 18.5599 36.0793C8.99363 36.0787 1.23877 28.325 1.23877 18.7581Z" fill="#484848"/>
<path d="M41.5068 6.32727H61.2434V11.3067H54.4548V31.2644H48.4234V11.3444H41.5068V6.32727Z" fill="#484848"/>
<path d="M90.9678 11.3444H85.4347V16.3233C85.4347 16.3233 89.7512 16.3381 90.397 16.3233C92.1307 16.2873 93.4712 15.513 93.4712 13.8147C93.4707 11.9684 92.333 11.3444 90.9678 11.3444ZM79.6793 6.32727C79.6793 6.32727 84.2175 6.32727 91.3924 6.32727C98.0512 6.32727 98.973 10.8833 98.973 13.5387C98.973 17.3941 95.653 19.3313 95.3581 19.405C95.3581 19.405 98.2735 20.493 98.2735 23.7953V28.4433C98.2735 30.3073 99.417 30.8227 99.6187 31.265H94.8604C92.5912 31.0078 92.629 29.2004 92.6467 28.1667V24.165C92.5912 23.1878 92.2964 22.0976 90.249 22.0616H85.4353V31.265H79.6621L79.6793 6.32727Z" fill="#484848"/>
<path d="M124.428 6.32727V31.2644H142.393V26.1376H130.294V20.5656H140.623V15.845H130.294V11.3444H142.393V6.32727H124.428Z" fill="#484848"/>
<path d="M143.243 11.3444H150.363V31.2644H156.264V11.3444H163.494V6.32727H143.243V11.3444Z" fill="#484848"/>
<path d="M67.4771 15.1255L65.356 21.5626H69.7285L67.4771 15.1255ZM64.1343 6.32263H70.5354L79.2554 31.2643H73.0514L71.2503 26.0821H63.8897L62.1908 31.2643H56.0388L64.1343 6.32263Z" fill="#484848"/>
<path d="M122.362 17.3392H111.646V22.1895H116.736C116.726 23.1878 116.884 24.1838 115.688 25.5855C115.28 26.0627 113.886 27.133 111.939 27.133C110.298 27.133 109.118 26.6638 108.094 25.7947C105.832 23.8735 105.299 20.285 105.299 18.4078C105.299 16.0467 106.239 10.1827 112.012 9.9421C112.012 9.9421 115.906 9.69067 116.92 14.3867H122.324C122.214 12.0067 119.446 5.32268 112.012 5.31239C109.447 5.30896 106.191 6.08096 103.495 8.78096C101.542 10.7364 99.7844 14.0204 99.7844 18.6472C99.7844 23.6667 101.632 26.9295 103.322 28.7215C106.287 31.8695 109.276 32.1118 110.833 32.1118C112.068 32.1118 114.43 31.9284 117.492 29.8621L118.303 31.2632H122.362V17.3392H122.362Z" fill="#484848"/>
<path d="M159.002 29.6249H159.312C159.51 29.6249 159.657 29.594 159.657 29.3809C159.657 29.1906 159.456 29.1615 159.295 29.1615H159.002V29.6249ZM158.652 28.8889H159.316C159.756 28.8889 160.006 29.026 160.006 29.41C160.006 29.7329 159.804 29.8575 159.543 29.8803L160.013 30.6495H159.648L159.22 29.8975H159.001V30.6495H158.652V28.8889H158.652ZM159.279 31.0112C159.931 31.0112 160.464 30.4895 160.464 29.7706C160.464 29.0557 159.93 28.5397 159.279 28.5397C158.618 28.5397 158.092 29.0557 158.092 29.7706C158.092 30.4895 158.617 31.0112 159.279 31.0112ZM159.279 28.202C160.131 28.202 160.892 28.8163 160.892 29.7706C160.892 30.7289 160.131 31.3466 159.279 31.3466C158.425 31.3466 157.664 30.7289 157.664 29.7706C157.663 28.8163 158.424 28.202 159.279 28.202Z" fill="#484848"/>
</g>
<defs>
<clipPath id="clip0_1344_7720">
<rect width="163.714" height="36" fill="white" transform="translate(0.554199 0.541504)"/>
</clipPath>
</defs>
</svg>
