<svg width="133" height="17" viewBox="0 0 133 17" fill="none" xmlns="http://www.w3.org/2000/svg">
<path fill-rule="evenodd" clip-rule="evenodd" d="M30.6331 3.81794L31.1704 6.97913H30.872C30.4543 5.01043 28.6651 4.17561 26.7565 4.17561C26.4582 4.17561 26.1599 4.17561 25.7421 4.29508V9.7233H26.4582C28.0084 9.7233 28.9627 9.12593 28.9627 7.87407H29.261V12.2879H29.0221C28.9026 11.3336 28.5449 10.1411 26.5176 10.1411H25.7421V15.1515C25.7421 15.9863 26.0998 16.4635 27.3524 16.4635V16.7626H22.0437V16.4635C23.2369 16.4635 23.6547 15.9863 23.6547 15.1515V5.42822C23.6547 4.65276 23.1776 4.11549 21.9843 4.11549V3.81794H30.6331ZM41.3701 3.81794L41.9066 6.97913H41.6082C41.1905 5.01043 39.4006 4.17561 37.492 4.17561C37.1944 4.17561 36.8954 4.17561 36.4783 4.29508V9.7233H37.1944C38.7446 9.7233 39.6997 9.12593 39.6997 7.87407H39.9972V12.2879H39.759C39.6395 11.3336 39.2819 10.1411 37.2538 10.1411H36.4783V15.1515C36.4783 15.9863 36.836 16.4635 38.0886 16.4635V16.7626H32.7799V16.4635C33.9724 16.4635 34.3902 15.9863 34.3902 15.1515V5.42822C34.3902 4.65276 33.913 4.11549 32.7198 4.11549V3.81794H41.3701ZM19.4197 3.81794V4.11549C18.5255 4.11549 17.9883 4.59264 17.9883 5.42822V15.15C17.9883 16.0449 18.5849 16.462 19.4197 16.462V16.761H14.4093V16.462C15.3042 16.4034 15.8407 16.0449 15.8407 15.15V5.42822C15.8407 4.5934 15.3042 4.11549 14.4093 4.11549V3.81794H19.4197ZM12.9177 0.298308L13.4543 4.17561H13.2161C12.4406 2.14754 11.0685 0.775458 8.38446 0.775458V14.494C8.38446 15.9848 9.21928 16.462 10.1142 16.462V16.761H4.14949V16.462C4.98506 16.462 5.99872 15.9848 5.99872 14.494V0.775458C3.25455 0.775458 2.00269 2.02807 1.0484 4.17561H0.809448L1.22724 0.298308H12.9177ZM86.2844 12.5261C86.2844 14.5541 87.7166 16.0457 89.804 16.0457C90.6989 16.0457 91.7719 15.6272 92.488 14.7337L88.3124 9.36488C87.298 9.7233 86.2844 10.7963 86.2844 12.5261ZM92.0109 4.53328C92.0064 2.87566 91.2888 2.02807 89.8641 2.02807C88.4319 2.02807 87.5963 2.86364 87.5963 4.23497C87.5963 5.78589 89.6845 7.93343 89.6845 7.93343C91.3549 6.97914 92.0109 6.02484 92.0109 4.53328ZM89.9828 8.2911L93.5626 12.7658C93.5626 12.7658 93.9195 12.0497 93.9796 11.3336C93.9796 10.4988 93.5626 10.2005 92.8465 10.0817V9.84278H96.7238C96.7238 9.84278 96.7824 10.0817 96.7238 10.0817C96.0077 10.2005 95.4704 10.4386 94.9331 10.8564C94.5161 11.3937 94.2772 11.8708 93.8 13.0641L95.4704 15.0922C96.1865 15.927 97.1408 16.4041 98.1544 16.4627V16.7618H93.9788V16.4627L92.7856 15.032C91.7712 16.0465 90.1617 16.9414 88.5514 16.9414C85.986 16.9414 84.3157 15.5092 84.3157 13.5412C84.3157 11.3944 86.3437 10.0216 87.954 8.94784C87.954 8.94784 86.2235 6.97989 86.2235 5.19077C86.2235 3.16345 87.7744 1.61178 89.922 1.61178C91.8313 1.61178 93.3221 2.98387 93.3221 4.65426C93.3229 6.56135 91.116 7.39692 89.9828 8.2911ZM115.989 0L116.167 5.18927H115.87C115.333 2.26626 113.425 0.596622 110.978 0.596622C108.056 0.596622 106.028 3.99677 106.028 8.53005C106.028 14.1965 108.294 16.5229 111.397 16.5229C114.616 16.5229 115.87 13.5405 116.168 11.3937H116.466V13.66C115.93 14.615 114.319 16.8212 110.919 16.8212C106.624 16.8212 103.284 13.3015 103.284 8.59017C103.284 4.29584 107.042 0.358423 110.919 0.358423C113.186 0.358423 113.782 1.31347 114.677 1.31347C115.333 1.31347 115.631 0.895686 115.691 0.000751002H115.989V0ZM131.676 14.3753C132.332 14.3753 132.869 14.9126 132.869 15.5686C132.869 16.2245 132.332 16.7017 131.676 16.7017C131.02 16.7017 130.483 16.2245 130.483 15.5686C130.483 14.9126 131.02 14.3753 131.676 14.3753ZM119.926 10.081C119.926 14.077 121.475 16.5221 123.922 16.5221C126.427 16.5221 127.977 14.2558 127.977 10.081C127.977 6.26304 126.606 4.11549 123.981 4.05613C121.297 3.99677 119.926 6.56135 119.926 10.081ZM123.863 3.75782C127.554 3.76534 130.662 6.56661 130.662 10.3184C130.662 13.9568 127.74 16.761 123.981 16.761C120.283 16.761 117.182 13.8373 117.182 10.3184C117.182 6.8003 120.224 3.75782 123.863 3.75782ZM46.4398 6.56135L48.6468 11.8701H44.2923L46.4398 6.56135ZM53.5971 16.4627C53.1199 16.4627 52.7622 16.0457 52.5233 15.7481C52.3445 15.4491 47.334 3.16195 47.334 3.16195L42.7414 14.3753C42.2049 15.806 41.4888 16.462 40.4751 16.462V16.761H44.2322V16.462C43.4575 16.4034 42.9796 16.045 42.9796 15.5077C42.9796 15.0907 44.1721 12.2278 44.1721 12.2278H48.7054C48.7054 12.2278 49.958 14.9118 50.0173 15.5077C50.0774 15.9848 49.3614 16.462 48.6453 16.462V16.761H53.5956V16.4627H53.5971ZM55.6852 14.494C55.6852 15.6873 54.9098 16.2245 54.075 16.462V16.761H57.8328V16.462C56.759 16.2245 56.1624 15.5077 56.1624 14.494V6.08495L64.9307 17V6.50274C64.9307 5.01118 65.7655 4.11625 66.7198 4.11625V3.81869H62.4848V4.05688C63.6781 4.41531 64.5129 5.13066 64.5129 6.50274V12.9454L57.2354 3.81869H53.7759V4.05688C55.2667 4.11624 55.6845 5.36886 55.6845 5.66717V14.494H55.6852ZM67.1969 4.11549C67.7282 4.11549 67.8552 4.11925 68.2707 4.89095C68.2707 4.89095 72.2667 11.2742 72.2667 11.3328V15.15C72.2667 15.9848 71.5506 16.462 70.4776 16.5221V16.761H76.0253V16.5221C75.0109 16.462 74.3549 15.9848 74.3549 15.15V10.6768C74.3549 10.6768 76.9187 6.0842 77.1577 5.66642C77.7535 4.71212 78.5884 4.1155 79.6028 3.99602V3.81719H75.0695L75.1296 3.99602C76.5603 3.99602 76.9187 5.3681 76.3815 6.20292L74.0551 10.4973L71.1929 5.48758C70.7143 4.71212 71.3117 3.99602 72.3847 3.99602V3.81719H67.1954V4.11549H67.1969Z" fill="#484848"/>
</svg>
