<svg width="139" height="29" viewBox="0 0 139 29" fill="none" xmlns="http://www.w3.org/2000/svg">
<path d="M52.0701 8.78584C52.0701 11.3109 50.5738 12.5454 48.0674 12.5454C45.5424 12.5454 44.0835 11.3296 44.0835 8.78584V2.96887H46.1409V8.78584C46.1409 9.81456 46.4028 10.8246 48.0674 10.8246C49.5264 10.8246 50.0127 10.1886 50.0127 8.78584V2.96887H52.0701V8.78584Z" fill="#484848"/>
<path d="M55.25 9.23485C55.25 10.488 56.2226 10.9556 57.3262 10.9556C58.0556 10.9556 59.1405 10.7499 59.1405 9.79598C59.1405 8.78596 57.7377 8.61762 56.3536 8.24354C54.9695 7.86946 53.5667 7.34574 53.5667 5.58756C53.5667 3.67974 55.381 2.76324 57.0643 2.76324C59.0096 2.76324 60.8051 3.62363 60.8051 5.7746H58.8225C58.7664 4.65236 57.9621 4.35309 56.9708 4.35309C56.3162 4.35309 55.5493 4.63365 55.5493 5.41922C55.5493 6.14868 55.9982 6.2235 58.3362 6.84073C59.0096 7.00907 61.1231 7.43926 61.1231 9.57153C61.1231 11.2923 59.7764 12.5642 57.2327 12.5642C55.1565 12.5642 53.23 11.5355 53.2487 9.23485H55.25Z" fill="#484848"/>
<path d="M68.5486 2.96887H70.6622L74.1599 12.3209H72.0276L71.3168 10.2448H67.8192L67.0897 12.3209H64.9949L68.5486 2.96887ZM68.3616 8.71102H70.7931L69.6148 5.26947H69.5961L68.3616 8.71102Z" fill="#484848"/>
<path d="M74.7771 5.55002H76.554V6.80319H76.5727C76.9094 5.9428 77.8259 5.36298 78.7424 5.36298C78.8733 5.36298 79.0229 5.38168 79.1539 5.43779V7.15857C78.9855 7.12116 78.705 7.10246 78.4805 7.10246C77.1151 7.10246 76.6475 8.09377 76.6475 9.27213V12.3209H74.7958V5.55002H74.7771Z" fill="#484848"/>
<path d="M79.9207 5.55002H81.6789V6.46652H81.6976C82.1839 5.77447 82.8947 5.36298 83.7738 5.36298C84.6342 5.36298 85.3823 5.68095 85.7564 6.48522C86.1492 5.88669 86.86 5.36298 87.7952 5.36298C89.2354 5.36298 90.2641 6.03632 90.2641 7.79451V12.3209H88.4124V8.48656C88.4124 7.58876 88.3376 6.8406 87.2715 6.8406C86.224 6.8406 86.0183 7.70098 86.0183 8.56137V12.3396H84.1666V8.52396C84.1666 7.73839 84.2227 6.8406 83.0443 6.8406C82.6702 6.8406 81.7912 7.08375 81.7912 8.39304V12.3209H79.9395V5.55002H79.9207Z" fill="#484848"/>
<path d="M95.0896 13.1814C94.6781 14.2663 94.0421 14.7152 92.7515 14.7152C92.3775 14.7152 91.9847 14.6965 91.6106 14.6591V13.1253C91.966 13.144 92.3401 13.2001 92.6954 13.1814C93.3314 13.1253 93.5558 12.452 93.3314 11.9096L90.9373 5.55017H92.9386L94.4723 10.1888H94.491L95.9687 5.55017H97.9139L95.0896 13.1814Z" fill="#484848"/>
<path d="M108.632 6.11124C108.501 5.17604 107.603 4.46528 106.593 4.46528C104.741 4.46528 104.049 6.03642 104.049 7.68238C104.049 9.23482 104.741 10.806 106.593 10.806C107.846 10.806 108.557 9.94558 108.725 8.71111H110.727C110.521 11.0491 108.912 12.5454 106.612 12.5454C103.712 12.5454 102.01 10.3758 102.01 7.68238C102.01 4.89548 103.712 2.74451 106.612 2.74451C108.669 2.74451 110.409 3.94157 110.652 6.11124H108.632Z" fill="#484848"/>
<path d="M115.197 5.36298C117.329 5.36298 118.713 6.78449 118.713 8.93545C118.713 11.0864 117.329 12.5079 115.197 12.5079C113.083 12.5079 111.699 11.0864 111.699 8.93545C111.699 6.78449 113.083 5.36298 115.197 5.36298ZM115.197 11.1051C116.469 11.1051 116.843 10.0203 116.843 8.93545C116.843 7.85062 116.469 6.76578 115.197 6.76578C113.944 6.76578 113.551 7.85062 113.551 8.93545C113.551 10.0203 113.944 11.1051 115.197 11.1051Z" fill="#484848"/>
<path d="M119.91 5.55002H121.687V6.80319H121.705C122.042 5.9428 122.959 5.36298 123.875 5.36298C124.006 5.36298 124.156 5.38168 124.287 5.43779V7.15857C124.118 7.12116 123.838 7.10246 123.613 7.10246C122.248 7.10246 121.78 8.09377 121.78 9.27213V12.3209H119.91V5.55002Z" fill="#484848"/>
<path d="M125.016 5.55002H126.793V6.4104H126.812C127.26 5.68095 127.99 5.36298 128.832 5.36298C130.964 5.36298 131.918 7.08375 131.918 9.01027C131.918 10.8246 130.926 12.5079 128.944 12.5079C128.14 12.5079 127.354 12.1526 126.905 11.4792H126.886V14.715H125.035V5.55002H125.016ZM130.047 8.95416C130.047 7.88803 129.617 6.76578 128.42 6.76578C127.204 6.76578 126.812 7.85062 126.812 8.95416C126.812 10.0577 127.223 11.1051 128.439 11.1051C129.655 11.1051 130.047 10.0577 130.047 8.95416Z" fill="#484848"/>
<path d="M134.462 10.1325C134.481 10.9368 135.154 11.2735 135.883 11.2735C136.426 11.2735 137.099 11.0678 137.099 10.4131C137.099 9.85199 136.332 9.64624 134.986 9.36568C133.92 9.12253 132.835 8.74845 132.835 7.55139C132.835 5.83061 134.331 5.38171 135.79 5.38171C137.268 5.38171 138.633 5.88672 138.783 7.55139H137.006C136.95 6.82193 136.407 6.63489 135.734 6.63489C135.322 6.63489 134.705 6.7097 134.705 7.27083C134.705 7.94417 135.753 8.03769 136.819 8.28084C137.904 8.524 138.97 8.91678 138.97 10.1887C138.97 11.9655 137.417 12.5454 135.883 12.5454C134.312 12.5454 132.779 11.9468 132.704 10.1513H134.462V10.1325Z" fill="#484848"/>
<path d="M47.226 18.0258C49.3582 18.0258 50.7423 19.4473 50.7423 21.5982C50.7423 23.7492 49.3582 25.1707 47.226 25.1707C45.1124 25.1707 43.7283 23.7492 43.7283 21.5982C43.7283 19.4473 45.1124 18.0258 47.226 18.0258ZM47.226 23.7679C48.4978 23.7679 48.8719 22.6831 48.8719 21.5982C48.8719 20.5134 48.4978 19.4286 47.226 19.4286C45.9728 19.4286 45.58 20.5134 45.58 21.5982C45.58 22.6831 45.9728 23.7679 47.226 23.7679Z" fill="#484848"/>
<path d="M52.3509 19.466H51.2287V18.2128H52.3509V17.6891C52.3509 16.492 53.0991 15.6317 54.6141 15.6317C54.9508 15.6317 55.2875 15.6691 55.6055 15.6878V17.0719C55.381 17.0532 55.1566 17.0345 54.9321 17.0345C54.4271 17.0345 54.2214 17.2402 54.2214 17.8013V18.2128H55.5119V19.466H54.2214V25.0024H52.3509V19.466Z" fill="#484848"/>
<path d="M60.1504 15.6317H67.1457V17.3524H62.2078V19.3538H66.7342V20.9436H62.2078V23.2442H67.2579V24.965H60.1504V15.6317Z" fill="#484848"/>
<path d="M68.6423 18.2128H70.4192V19.148H70.4566C70.9242 18.3811 71.7471 18.0258 72.5327 18.0258C74.5154 18.0258 75.0017 19.148 75.0017 20.8127V24.9837H73.1313V21.1493C73.1313 20.0271 72.7946 19.4847 71.9342 19.4847C70.9242 19.4847 70.494 20.0458 70.494 21.4299V24.9837H68.6423V18.2128Z" fill="#484848"/>
<path d="M83.1192 24.5535C83.1192 25.6757 82.7264 27.5461 79.6028 27.5461C78.2749 27.5461 76.7037 26.9102 76.6102 25.3765H78.4619C78.6302 26.0685 79.1914 26.3117 79.846 26.3117C80.8747 26.3117 81.361 25.6009 81.3423 24.6283V23.7305H81.3236C80.9121 24.4413 80.1079 24.7779 79.2849 24.7779C77.2461 24.7779 76.3857 23.2255 76.3857 21.3738C76.3857 19.6156 77.3958 18.0258 79.3036 18.0258C80.2014 18.0258 80.8747 18.325 81.3236 19.1106H81.3423V18.2128H83.1192V24.5535ZM81.361 21.5234C81.361 20.4199 80.9869 19.4473 79.7712 19.4473C78.7238 19.4473 78.2561 20.3638 78.2561 21.3738C78.2561 22.3464 78.6302 23.4125 79.7712 23.4125C80.8373 23.3938 81.361 22.496 81.361 21.5234Z" fill="#484848"/>
<path d="M86.7291 17.1654H84.8773V15.6317H86.7291V17.1654ZM84.8773 18.2128H86.7291V24.9837H84.8773V18.2128Z" fill="#484848"/>
<path d="M88.3935 18.2128H90.1704V19.148H90.2078C90.6754 18.3811 91.4984 18.0258 92.2839 18.0258C94.2666 18.0258 94.7529 19.148 94.7529 20.8127V24.9837H92.8825V21.1493C92.8825 20.0271 92.5458 19.4847 91.6854 19.4847C90.6754 19.4847 90.2452 20.0458 90.2452 21.4299V24.9837H88.3935V18.2128Z" fill="#484848"/>
<path d="M97.8953 22.0657C97.9514 23.244 98.5312 23.7865 99.5599 23.7865C100.308 23.7865 100.907 23.3189 101.019 22.9074H102.665C102.141 24.4972 101.019 25.1893 99.4851 25.1893C97.3529 25.1893 96.0249 23.7303 96.0249 21.6168C96.0249 19.578 97.4277 18.0443 99.4851 18.0443C101.786 18.0443 102.908 19.9895 102.777 22.0657H97.8953ZM100.925 20.8686C100.757 19.9334 100.346 19.4284 99.4477 19.4284C98.2694 19.4284 97.9327 20.3449 97.8953 20.8686H100.925Z" fill="#484848"/>
<path d="M105.62 22.0657C105.676 23.244 106.256 23.7865 107.285 23.7865C108.033 23.7865 108.631 23.3189 108.744 22.9074H110.39C109.866 24.4972 108.744 25.1893 107.21 25.1893C105.078 25.1893 103.75 23.7303 103.75 21.6168C103.75 19.578 105.153 18.0443 107.21 18.0443C109.511 18.0443 110.633 19.9895 110.502 22.0657H105.62ZM108.65 20.8686C108.482 19.9334 108.07 19.4284 107.173 19.4284C105.994 19.4284 105.658 20.3449 105.62 20.8686H108.65Z" fill="#484848"/>
<path d="M111.811 18.2128H113.588V19.466H113.607C113.943 18.6056 114.86 18.0258 115.776 18.0258C115.907 18.0258 116.057 18.0445 116.188 18.0819V19.8213C116.02 19.7839 115.739 19.7465 115.515 19.7465C114.149 19.7465 113.682 20.7378 113.682 21.9162V24.965H111.83V18.2128H111.811Z" fill="#484848"/>
<path d="M118.545 22.7951C118.564 23.5994 119.237 23.9361 119.966 23.9361C120.509 23.9361 121.182 23.7303 121.182 23.0757C121.182 22.5146 120.415 22.3088 119.069 22.0283C118.002 21.7851 116.918 21.411 116.918 20.214C116.918 18.4932 118.414 18.0443 119.873 18.0443C121.351 18.0443 122.716 18.5493 122.866 20.214H121.089C121.033 19.4845 120.49 19.2975 119.817 19.2975C119.405 19.2975 118.788 19.3723 118.788 19.9334C118.788 20.6068 119.835 20.7003 120.902 20.9434C121.986 21.1866 123.053 21.5794 123.053 22.8513C123.053 24.6281 121.5 25.208 119.966 25.208C118.395 25.208 116.862 24.6094 116.787 22.8139H118.545V22.7951Z" fill="#484848"/>
<path d="M126.4 20.8873C127.541 20.8873 128.551 21.7103 128.551 22.9822C128.551 24.2728 127.541 25.0957 126.4 25.0957C125.259 25.0957 124.249 24.2728 124.249 22.9822C124.231 21.7103 125.259 20.8873 126.4 20.8873ZM126.4 24.6468C127.279 24.6468 127.99 23.9548 127.99 22.9822C127.99 22.0283 127.279 21.3362 126.4 21.3362C125.521 21.3362 124.81 22.0283 124.81 22.9822C124.81 23.9361 125.521 24.6468 126.4 24.6468ZM125.559 21.8038H126.456C127.055 21.8038 127.373 21.9909 127.373 22.4959C127.373 22.9261 127.111 23.0944 126.756 23.1318L127.392 24.1605H126.905L126.325 23.1505H126.026V24.1605H125.559V21.8038ZM126.026 22.7764H126.438C126.7 22.7764 126.905 22.739 126.905 22.4585C126.905 22.1966 126.643 22.1592 126.419 22.1592H126.026V22.7764Z" fill="#484848"/>
<path d="M5.19792 0.5H33.2914C35.7043 0.5 37.6495 2.44522 37.6495 4.85805V24.142C37.6495 26.5548 35.7043 28.5 33.2914 28.5H5.19792C2.7851 28.4813 0.839874 26.5361 0.839874 24.142V4.85805C0.839874 2.44522 2.7851 0.5 5.19792 0.5Z" fill="#484848"/>
<path d="M33.0857 26.1995H5.29144C4.11309 26.1995 3.15918 25.2456 3.15918 24.0672V4.802C3.15918 3.62365 4.11309 2.66974 5.29144 2.66974H33.067C34.2454 2.66974 35.1993 3.62365 35.1993 4.802V24.0859C35.1993 25.2456 34.2454 26.1995 33.0857 26.1995ZM5.29144 3.19345C4.41235 3.19345 3.68289 3.92291 3.68289 4.802V24.0859C3.68289 24.965 4.41235 25.6945 5.29144 25.6945H33.067C33.9461 25.6945 34.6756 24.965 34.6756 24.0859V4.802C34.6756 3.92291 33.9461 3.19345 33.067 3.19345H5.29144Z" fill="#484848"/>
<path d="M7.01231 5.94281H8.88272V7.60747H9.7057V5.94281H11.7631L11.7818 7.60747H12.3991L12.4178 5.94281H14.4752V8.76713L13.2408 9.77715L13.2595 13.6115H16.5514L16.5327 12.377L15.6162 11.6288L15.5975 8.6362H17.5801V10.0951H18.4031V8.6362H19.862V10.0951L20.685 10.0764V8.61749H22.7611V11.3483L21.7324 12.377V13.5928L25.043 13.6115V9.75844L24.0143 8.93546V5.94281H25.8847V7.60747H26.6142V5.94281H28.5781L28.5968 7.60747H29.4198V5.94281H31.2902L31.3089 8.95417L30.4859 9.62751L30.4672 18.5868L31.4959 19.4284L31.5146 22.5333H6.90009V19.4284L7.83529 18.6055V9.5714L7.01231 8.84194V5.94281ZM10.2294 10.5066V13.7237H11.1646V10.5066H10.2294ZM10.2294 16.6228V19.6342H11.1646V16.6228H10.2294ZM27.2127 10.5066V13.7237H28.1479V10.5066H27.2127ZM27.2127 16.6228V19.6342H28.1479V16.6228H27.2127ZM14.2695 16.6228V18.9047H15.2047V16.6228H14.2695ZM23.1726 16.6228V18.9047H24.1078V16.6228H23.1726ZM17.0564 17.3523V21.0931H21.3022V17.3523C21.3022 16.2862 20.3483 15.4071 19.17 15.4071C18.0103 15.4071 17.0564 16.2675 17.0564 17.3523Z" fill="white"/>
</svg>
